<?xml version="1.0" encoding="utf-8"?>
<svg xmlns="http://www.w3.org/2000/svg" xmlns:xlink="http://www.w3.org/1999/xlink" width="600" height="400" viewBox="0 0 600 400">
<defs>
  <clipPath id="clip8700">
    <rect x="0" y="0" width="600" height="400"/>
  </clipPath>
</defs>
<polygon clip-path="url(#clip8700)" points="
0,400 600,400 600,0 0,0 
  " fill="#ffffff" fill-opacity="1"/>
<defs>
  <clipPath id="clip8701">
    <rect x="120" y="0" width="421" height="400"/>
  </clipPath>
</defs>
<polygon clip-path="url(#clip8700)" points="
29.4661,375.869 580.315,375.869 580.315,11.811 29.4661,11.811 
  " fill="#ffffff" fill-opacity="1"/>
<defs>
  <clipPath id="clip8702">
    <rect x="29" y="11" width="552" height="365"/>
  </clipPath>
</defs>
<polyline clip-path="url(#clip8702)" style="stroke:#000000; stroke-width:0.5; stroke-opacity:0.1; fill:none" points="
  139.195,375.869 139.195,11.811 
  "/>
<polyline clip-path="url(#clip8702)" style="stroke:#000000; stroke-width:0.5; stroke-opacity:0.1; fill:none" points="
  249.475,375.869 249.475,11.811 
  "/>
<polyline clip-path="url(#clip8702)" style="stroke:#000000; stroke-width:0.5; stroke-opacity:0.1; fill:none" points="
  359.755,375.869 359.755,11.811 
  "/>
<polyline clip-path="url(#clip8702)" style="stroke:#000000; stroke-width:0.5; stroke-opacity:0.1; fill:none" points="
  470.035,375.869 470.035,11.811 
  "/>
<polyline clip-path="url(#clip8702)" style="stroke:#000000; stroke-width:0.5; stroke-opacity:0.1; fill:none" points="
  580.315,375.869 580.315,11.811 
  "/>
<polyline clip-path="url(#clip8702)" style="stroke:#000000; stroke-width:0.5; stroke-opacity:0.1; fill:none" points="
  29.4661,304.619 580.315,304.619 
  "/>
<polyline clip-path="url(#clip8702)" style="stroke:#000000; stroke-width:0.5; stroke-opacity:0.1; fill:none" points="
  29.4661,210.392 580.315,210.392 
  "/>
<polyline clip-path="url(#clip8702)" style="stroke:#000000; stroke-width:0.5; stroke-opacity:0.1; fill:none" points="
  29.4661,116.165 580.315,116.165 
  "/>
<polyline clip-path="url(#clip8702)" style="stroke:#000000; stroke-width:0.5; stroke-opacity:0.1; fill:none" points="
  29.4661,21.938 580.315,21.938 
  "/>
<polyline clip-path="url(#clip8700)" style="stroke:#000000; stroke-width:1; stroke-opacity:1; fill:none" points="
  29.4661,375.869 580.315,375.869 
  "/>
<polyline clip-path="url(#clip8700)" style="stroke:#000000; stroke-width:1; stroke-opacity:1; fill:none" points="
  29.4661,375.869 29.4661,11.811 
  "/>
<polyline clip-path="url(#clip8700)" style="stroke:#000000; stroke-width:1; stroke-opacity:1; fill:none" points="
  139.195,375.869 139.195,370.408 
  "/>
<polyline clip-path="url(#clip8700)" style="stroke:#000000; stroke-width:1; stroke-opacity:1; fill:none" points="
  249.475,375.869 249.475,370.408 
  "/>
<polyline clip-path="url(#clip8700)" style="stroke:#000000; stroke-width:1; stroke-opacity:1; fill:none" points="
  359.755,375.869 359.755,370.408 
  "/>
<polyline clip-path="url(#clip8700)" style="stroke:#000000; stroke-width:1; stroke-opacity:1; fill:none" points="
  470.035,375.869 470.035,370.408 
  "/>
<polyline clip-path="url(#clip8700)" style="stroke:#000000; stroke-width:1; stroke-opacity:1; fill:none" points="
  580.315,375.869 580.315,370.408 
  "/>
<polyline clip-path="url(#clip8700)" style="stroke:#000000; stroke-width:1; stroke-opacity:1; fill:none" points="
  29.4661,304.619 37.7289,304.619 
  "/>
<polyline clip-path="url(#clip8700)" style="stroke:#000000; stroke-width:1; stroke-opacity:1; fill:none" points="
  29.4661,210.392 37.7289,210.392 
  "/>
<polyline clip-path="url(#clip8700)" style="stroke:#000000; stroke-width:1; stroke-opacity:1; fill:none" points="
  29.4661,116.165 37.7289,116.165 
  "/>
<polyline clip-path="url(#clip8700)" style="stroke:#000000; stroke-width:1; stroke-opacity:1; fill:none" points="
  29.4661,21.938 37.7289,21.938 
  "/>
<g clip-path="url(#clip8700)">
<text style="fill:#000000; fill-opacity:1; font-family:Arial,Helvetica Neue,Helvetica,sans-serif; font-size:12; text-anchor:middle;" transform="rotate(0, 139.195, 389.669)" x="139.195" y="389.669">200</text>
</g>
<g clip-path="url(#clip8700)">
<text style="fill:#000000; fill-opacity:1; font-family:Arial,Helvetica Neue,Helvetica,sans-serif; font-size:12; text-anchor:middle;" transform="rotate(0, 249.475, 389.669)" x="249.475" y="389.669">400</text>
</g>
<g clip-path="url(#clip8700)">
<text style="fill:#000000; fill-opacity:1; font-family:Arial,Helvetica Neue,Helvetica,sans-serif; font-size:12; text-anchor:middle;" transform="rotate(0, 359.755, 389.669)" x="359.755" y="389.669">600</text>
</g>
<g clip-path="url(#clip8700)">
<text style="fill:#000000; fill-opacity:1; font-family:Arial,Helvetica Neue,Helvetica,sans-serif; font-size:12; text-anchor:middle;" transform="rotate(0, 470.035, 389.669)" x="470.035" y="389.669">800</text>
</g>
<g clip-path="url(#clip8700)">
<text style="fill:#000000; fill-opacity:1; font-family:Arial,Helvetica Neue,Helvetica,sans-serif; font-size:12; text-anchor:middle;" transform="rotate(0, 580.315, 389.669)" x="580.315" y="389.669">1000</text>
</g>
<g clip-path="url(#clip8700)">
<text style="fill:#000000; fill-opacity:1; font-family:Arial,Helvetica Neue,Helvetica,sans-serif; font-size:12; text-anchor:end;" transform="rotate(0, 23.4661, 309.119)" x="23.4661" y="309.119">-2</text>
</g>
<g clip-path="url(#clip8700)">
<text style="fill:#000000; fill-opacity:1; font-family:Arial,Helvetica Neue,Helvetica,sans-serif; font-size:12; text-anchor:end;" transform="rotate(0, 23.4661, 214.892)" x="23.4661" y="214.892">0</text>
</g>
<g clip-path="url(#clip8700)">
<text style="fill:#000000; fill-opacity:1; font-family:Arial,Helvetica Neue,Helvetica,sans-serif; font-size:12; text-anchor:end;" transform="rotate(0, 23.4661, 120.665)" x="23.4661" y="120.665">2</text>
</g>
<g clip-path="url(#clip8700)">
<text style="fill:#000000; fill-opacity:1; font-family:Arial,Helvetica Neue,Helvetica,sans-serif; font-size:12; text-anchor:end;" transform="rotate(0, 23.4661, 26.438)" x="23.4661" y="26.438">4</text>
</g>
<polyline clip-path="url(#clip8702)" style="stroke:#009af9; stroke-width:1; stroke-opacity:1; fill:none" points="
  29.4661,225.916 30.0175,108.06 30.5689,200.214 31.1203,223.188 31.6717,180.775 32.2231,249.058 32.7745,245.006 33.3259,194.097 33.8773,228.598 34.4287,240.762 
  34.9801,224.328 35.5315,277.532 36.0829,159.76 36.6343,148.815 37.1857,211.47 37.7371,210.758 38.2885,171.801 38.8399,200.348 39.3913,167.821 39.9427,170.571 
  40.4941,193.982 41.0455,249.459 41.5969,122.355 42.1483,200.532 42.6997,161.422 43.2511,168.038 43.8025,142.449 44.3539,311.611 44.9053,184.659 45.4567,221.379 
  46.0081,172.905 46.5595,200.059 47.1109,204.968 47.6623,218.581 48.2137,234.127 48.7651,249.098 49.3165,168.462 49.8679,250.537 50.4193,178.118 50.9707,247.798 
  51.5221,217.125 52.0735,195.179 52.6249,138.119 53.1763,191.332 53.7277,152.251 54.2791,212.516 54.8305,180.571 55.3819,224.44 55.9333,141.717 56.4847,219.683 
  57.0361,211.705 57.5875,261.52 58.1389,278.658 58.6903,236.46 59.2417,206.986 59.7931,241.54 60.3445,118.118 60.896,127.193 61.4474,251.683 61.9988,202.842 
  62.5502,284.999 63.1016,192.413 63.653,235.931 64.2044,213.945 64.7558,205.231 65.3072,207.697 65.8586,198.212 66.41,149.781 66.9614,204.652 67.5128,218.614 
  68.0642,259.538 68.6156,216.308 69.167,203.696 69.7184,259.551 70.2698,200.716 70.8212,173.637 71.3726,181.089 71.924,209.444 72.4754,164.488 73.0268,167.95 
  73.5782,218.693 74.1296,160.747 74.681,184.473 75.2324,165.021 75.7838,202.232 76.3352,197.553 76.8866,225.285 77.438,206.874 77.9894,176.633 78.5408,177.808 
  79.0922,235.856 79.6436,113.016 80.195,304.265 80.7464,11.811 81.2978,254.548 81.8492,180.83 82.4006,211.975 82.952,162.358 83.5034,235.12 84.0548,202.886 
  84.6062,227.245 85.1576,191.561 85.709,218.515 86.2604,219.189 86.8118,217.467 87.3632,159.162 87.9146,157.293 88.466,239.082 89.0174,171.065 89.5688,151.494 
  90.1202,207.001 90.6716,242.791 91.223,176.836 91.7744,233.319 92.3258,266.25 92.8772,198.291 93.4286,176.699 93.98,224.733 94.5314,219.263 95.0828,223.797 
  95.6342,166.57 96.1856,205.204 96.737,138.778 97.2884,93.0377 97.8398,144.459 98.3912,171.229 98.9426,128.97 99.494,242.477 100.045,299.294 100.597,124.245 
  101.148,136.596 101.7,264.853 102.251,223.499 102.802,176.16 103.354,101.626 103.905,215.474 104.457,164.418 105.008,205.666 105.559,152.403 106.111,167.585 
  106.662,201.2 107.214,291.676 107.765,184.277 108.316,201.493 108.868,246.054 109.419,205.22 109.971,225.54 110.522,286.584 111.073,122.437 111.625,216.681 
  112.176,189.374 112.728,221.24 113.279,128.859 113.83,339.386 114.382,147.377 114.933,204.182 115.485,115.067 116.036,237.09 116.587,234.191 117.139,260.59 
  117.69,179.286 118.242,223.38 118.793,179.107 119.344,283.557 119.896,258.951 120.447,151.783 120.999,253.023 121.55,242.892 122.101,241.298 122.653,220.005 
  123.204,325.061 123.756,168.805 124.307,269.177 124.858,218.826 125.41,263.342 125.961,297.423 126.513,183.675 127.064,227.964 127.615,211.082 128.167,210.272 
  128.718,239.093 129.27,248.698 129.821,162.993 130.372,303.339 130.924,257.122 131.475,260.752 132.027,194.249 132.578,159.777 133.129,217.657 133.681,281.993 
  134.232,272.094 134.784,211.325 135.335,253.392 135.886,255.942 136.438,188.135 136.989,196.641 137.541,182.874 138.092,236.301 138.643,218.299 139.195,165.63 
  139.746,242.462 140.298,269.545 140.849,231.123 141.4,151.306 141.952,268.59 142.503,223.078 143.055,265.104 143.606,161.786 144.157,213.164 144.709,194.49 
  145.26,252.276 145.812,217.12 146.363,209.561 146.914,256.218 147.466,152.434 148.017,154.75 148.569,99.0952 149.12,135.154 149.671,299.12 150.223,238.38 
  150.774,243.734 151.326,223.945 151.877,140.682 152.428,181.853 152.98,189.427 153.531,223.555 154.083,72.8607 154.634,233.482 155.185,192.243 155.737,142.928 
  156.288,258.442 156.84,220.097 157.391,188.717 157.942,198.907 158.494,283.074 159.045,256.357 159.597,254.122 160.148,232.608 160.699,150.31 161.251,255.886 
  161.802,142.332 162.354,233.551 162.905,262.805 163.456,162.994 164.008,191.946 164.559,150.813 165.111,176.3 165.662,214.074 166.213,194.686 166.765,202.278 
  167.316,146.888 167.868,230.184 168.419,158.109 168.97,201.459 169.522,256.869 170.073,200.283 170.625,275.978 171.176,225.774 171.727,109.938 172.279,229.863 
  172.83,213.776 173.382,224.842 173.933,119.336 174.484,242.952 175.036,283.199 175.587,278.73 176.139,197.024 176.69,194.406 177.241,211.437 177.793,285.237 
  178.344,180.936 178.896,210.093 179.447,213.168 179.998,184.523 180.55,257.95 181.101,183.487 181.653,222.928 182.204,283.594 182.755,140.413 183.307,213.682 
  183.858,258.621 184.41,216.647 184.961,231.633 185.512,201.228 186.064,221.076 186.615,206.627 187.167,237.742 187.718,191.632 188.269,219.318 188.821,244.19 
  189.372,266.418 189.924,207.06 190.475,254.819 191.026,253.4 191.578,201.464 192.129,154.35 192.681,208.409 193.232,292.428 193.783,247.516 194.335,221.338 
  194.886,147.29 195.438,162.854 195.989,248.471 196.54,231.669 197.092,168.606 197.643,152.013 198.195,145.475 198.746,173.981 199.297,289.839 199.849,191.176 
  200.4,260.555 200.952,169.416 201.503,176.404 202.054,258.998 202.606,230.801 203.157,219.639 203.709,161.783 204.26,229.274 204.811,221.758 205.363,186.826 
  205.914,162.852 206.466,246.524 207.017,188.599 207.568,216.279 208.12,183.461 208.671,141.823 209.223,131.197 209.774,131.778 210.325,290.509 210.877,238.128 
  211.428,236.114 211.98,275.534 212.531,255.535 213.082,166.014 213.634,141.071 214.185,250.865 214.737,174.906 215.288,199.606 215.839,375.869 216.391,155.759 
  216.942,230.268 217.494,237.815 218.045,218.68 218.596,254.139 219.148,220.104 219.699,194.624 220.251,184.284 220.802,228.902 221.353,218.222 221.905,249.647 
  222.456,212.52 223.008,201.636 223.559,240.098 224.11,272.426 224.662,253.093 225.213,146.304 225.765,292.712 226.316,179.879 226.867,129.293 227.419,167.433 
  227.97,300.788 228.522,156.243 229.073,270.047 229.624,167.083 230.176,245.587 230.727,89.2336 231.279,224.671 231.83,364.384 232.381,186.404 232.933,128.679 
  233.484,230.847 234.036,157.907 234.587,187.572 235.138,149.897 235.69,187.61 236.241,150.736 236.793,271.967 237.344,164.076 237.895,241.266 238.447,281.09 
  238.998,135.213 239.55,213.408 240.101,225.603 240.652,345.149 241.204,222.931 241.755,241.482 242.307,202.109 242.858,315.204 243.409,225.774 243.961,195.732 
  244.512,227.515 245.064,157.004 245.615,217.891 246.166,293.465 246.718,187.405 247.269,171.532 247.821,196.619 248.372,151.394 248.923,227.002 249.475,247.968 
  250.026,199.169 250.578,243.602 251.129,248.856 251.68,180.85 252.232,196.437 252.783,172.643 253.335,225.826 253.886,180.041 254.437,192.817 254.989,194.624 
  255.54,197.098 256.092,172.924 256.643,195.683 257.194,194.861 257.746,133.173 258.297,200.172 258.849,183.905 259.4,265.758 259.951,196.486 260.503,255.791 
  261.054,236.661 261.606,221.605 262.157,247.742 262.708,247.604 263.26,224.092 263.811,224.758 264.363,221.085 264.914,229.551 265.465,202.561 266.017,326.397 
  266.568,224.939 267.12,146.408 267.671,197.944 268.222,191.522 268.774,261.714 269.325,165.832 269.877,191.041 270.428,220.436 270.979,181.968 271.531,157.556 
  272.082,285.221 272.634,195.648 273.185,237.494 273.736,221.655 274.288,178.945 274.839,232.202 275.391,199.093 275.942,290.884 276.493,175.936 277.045,255.749 
  277.596,135.602 278.148,174.327 278.699,146.634 279.25,200.719 279.802,260.644 280.353,238.155 280.905,194.984 281.456,199.391 282.007,267.063 282.559,190.963 
  283.11,207.892 283.662,184.463 284.213,193.873 284.764,250.124 285.316,219.694 285.867,213.558 286.419,177.673 286.97,252.41 287.521,240.479 288.073,188.683 
  288.624,285.407 289.176,198.935 289.727,325.491 290.278,264.985 290.83,229.529 291.381,109.736 291.933,240.782 292.484,226.942 293.035,209.584 293.587,205.134 
  294.138,162.987 294.69,207.633 295.241,203.115 295.792,124.563 296.344,161.415 296.895,253.59 297.447,210.855 297.998,210.912 298.549,143.937 299.101,131.011 
  299.652,245.568 300.204,179.486 300.755,229.175 301.306,232.127 301.858,251.814 302.409,171.3 302.961,136.509 303.512,289.14 304.063,241.665 304.615,200.385 
  305.166,246.73 305.718,224.218 306.269,114.076 306.82,153.045 307.372,222.324 307.923,110.375 308.475,254.075 309.026,196.91 309.577,206.573 310.129,185.204 
  310.68,202.752 311.232,210.766 311.783,147.566 312.334,196.585 312.886,179.635 313.437,227.441 313.989,201.646 314.54,180.776 315.091,271.841 315.643,140.264 
  316.194,257.482 316.746,221.135 317.297,233.641 317.848,182.612 318.4,245.795 318.951,180.752 319.503,111.326 320.054,201.279 320.605,187.445 321.157,146.51 
  321.708,165.798 322.26,170.181 322.811,201.339 323.362,190.023 323.914,179.402 324.465,252.813 325.017,182.758 325.568,164.962 326.119,185.488 326.671,219.676 
  327.222,216.144 327.774,266.87 328.325,240.254 328.876,175.532 329.428,214.466 329.979,241.369 330.531,283.226 331.082,206.709 331.633,308.475 332.185,310.145 
  332.736,158.569 333.288,257.211 333.839,209.909 334.39,121.517 334.942,205.967 335.493,182.821 336.045,206.44 336.596,159.198 337.147,186.644 337.699,220.194 
  338.25,263.588 338.802,182.534 339.353,173.974 339.904,162.159 340.456,145.456 341.007,284.238 341.559,132.709 342.11,261.107 342.661,145.439 343.213,282.204 
  343.764,233.001 344.316,285.981 344.867,162.08 345.418,213.079 345.97,246.164 346.521,215.593 347.073,281.721 347.624,287.676 348.175,147.882 348.727,222.462 
  349.278,218.387 349.83,195.535 350.381,241.795 350.932,289.846 351.484,234.482 352.035,156.112 352.587,246.682 353.138,134.902 353.689,174.296 354.241,293.834 
  354.792,245.868 355.344,227.954 355.895,94.7132 356.446,166.839 356.998,225.918 357.549,177.074 358.101,129.432 358.652,291.107 359.203,232.783 359.755,252.315 
  360.306,172.686 360.858,197.653 361.409,282.689 361.96,207.972 362.512,199.314 363.063,209.069 363.615,164.212 364.166,231.369 364.717,265.54 365.269,264.798 
  365.82,241.69 366.372,171.132 366.923,258.348 367.474,180.651 368.026,254.035 368.577,259.895 369.129,236.207 369.68,215.711 370.231,265.27 370.783,217.413 
  371.334,216.236 371.886,135.088 372.437,212.896 372.988,248.674 373.54,108.806 374.091,211.622 374.643,282.383 375.194,222.879 375.745,176.571 376.297,218.257 
  376.848,231.751 377.4,193.721 377.951,130.621 378.502,210.312 379.054,211.852 379.605,236.047 380.157,214.52 380.708,198.744 381.259,229.685 381.811,293.525 
  382.362,218.644 382.914,272.122 383.465,212.543 384.016,132.614 384.568,176.553 385.119,106.279 385.671,203.208 386.222,173.998 386.773,251.361 387.325,202.869 
  387.876,200.499 388.428,211.332 388.979,199.167 389.53,264.657 390.082,221.275 390.633,192.075 391.185,209.845 391.736,172.791 392.287,153.682 392.839,215.215 
  393.39,245.9 393.942,213.71 394.493,177.133 395.044,182.827 395.596,189.566 396.147,149.558 396.699,229.44 397.25,195.507 397.801,208.017 398.353,214.337 
  398.904,188.286 399.456,201.865 400.007,235.91 400.558,177.86 401.11,186.033 401.661,207.7 402.213,311.853 402.764,152.356 403.315,163.825 403.867,315.333 
  404.418,235.963 404.97,161.237 405.521,172.891 406.072,205.261 406.624,297.475 407.175,262.45 407.727,204.685 408.278,191.834 408.829,221.789 409.381,191.845 
  409.932,220.911 410.484,204.132 411.035,172.697 411.586,214.607 412.138,208.92 412.689,203.509 413.241,134.793 413.792,264.428 414.343,217.754 414.895,180.449 
  415.446,212.585 415.998,223.395 416.549,282.145 417.1,138.292 417.652,254.447 418.203,250.405 418.755,169.076 419.306,297.245 419.857,214.184 420.409,198.608 
  420.96,225.211 421.512,169.189 422.063,237.394 422.614,225.521 423.166,249.734 423.717,168.19 424.269,261.539 424.82,146.618 425.371,138.002 425.923,161.973 
  426.474,210.798 427.026,257.063 427.577,172.017 428.128,251.322 428.68,144.021 429.231,223.523 429.783,226.792 430.334,229.744 430.886,222.495 431.437,162.821 
  431.988,149.867 432.54,202.273 433.091,185.878 433.643,174.021 434.194,225.822 434.745,227.444 435.297,246.592 435.848,145.169 436.4,224.299 436.951,198.918 
  437.502,225.783 438.054,234.457 438.605,279.814 439.157,208.715 439.708,197.895 440.259,249.263 440.811,200.494 441.362,195.067 441.914,253.791 442.465,320.3 
  443.016,230.916 443.568,246.795 444.119,249.966 444.671,259.525 445.222,189.275 445.773,251.444 446.325,264.98 446.876,264.327 447.428,270.564 447.979,255.29 
  448.53,203.305 449.082,195.078 449.633,181.305 450.185,233.065 450.736,185.702 451.287,233.895 451.839,272.911 452.39,153.743 452.942,256.164 453.493,184.962 
  454.044,245.758 454.596,123.802 455.147,146.798 455.699,86.601 456.25,209.71 456.801,247.458 457.353,218.056 457.904,318.346 458.456,122.232 459.007,200.559 
  459.558,224.219 460.11,193.506 460.661,173.126 461.213,163.342 461.764,191.175 462.315,261.24 462.867,97.6623 463.418,150.496 463.97,194.535 464.521,251.03 
  465.072,242.279 465.624,248.883 466.175,134.182 466.727,217.05 467.278,292.875 467.829,125.506 468.381,204.777 468.932,126.595 469.484,172.101 470.035,266.102 
  470.586,282.179 471.138,192.195 471.689,188.094 472.241,230.985 472.792,186.833 473.343,271.109 473.895,192.079 474.446,187.711 474.998,219.308 475.549,201.664 
  476.1,241.828 476.652,220.427 477.203,302.39 477.755,197.08 478.306,235.129 478.857,197.197 479.409,291.835 479.96,219.058 480.512,230.233 481.063,83.3956 
  481.614,257.874 482.166,195.193 482.717,189.575 483.269,192.334 483.82,209.814 484.371,231.342 484.923,166.683 485.474,243.725 486.026,180.753 486.577,164.467 
  487.128,222.663 487.68,260.666 488.231,161.606 488.783,148.518 489.334,208.151 489.885,218.349 490.437,206.762 490.988,128.74 491.54,255.107 492.091,199.524 
  492.642,207.766 493.194,212.254 493.745,129.02 494.297,106.705 494.848,240.64 495.399,271.042 495.951,94.7006 496.502,208.182 497.054,156.983 497.605,152.374 
  498.156,212.011 498.708,188.422 499.259,249.481 499.811,330.054 500.362,331.839 500.913,210.568 501.465,190.993 502.016,211.29 502.568,230.189 503.119,169.805 
  503.67,256.874 504.222,152.23 504.773,286.791 505.325,242.192 505.876,266.759 506.427,163.066 506.979,228.395 507.53,206.313 508.082,203.877 508.633,154.896 
  509.184,195.286 509.736,234.703 510.287,191.785 510.839,245.894 511.39,169.793 511.941,232.805 512.493,191.746 513.044,170.478 513.596,191.657 514.147,245.784 
  514.698,259.973 515.25,190.569 515.801,224.272 516.353,115.139 516.904,272.079 517.455,209.375 518.007,256.288 518.558,174.518 519.11,185.145 519.661,354.976 
  520.212,291.528 520.764,205.277 521.315,217.815 521.867,206.8 522.418,118.494 522.969,192.516 523.521,218.907 524.072,247.564 524.624,168.124 525.175,246.921 
  525.726,189.677 526.278,143.01 526.829,118.517 527.381,273.342 527.932,169.528 528.483,179.994 529.035,308.667 529.586,167.135 530.138,241.664 530.689,244.815 
  531.24,238.153 531.792,242.313 532.343,329.966 532.895,287.451 533.446,245.307 533.997,284.15 534.549,225.63 535.1,223.499 535.652,249.681 536.203,214.348 
  536.754,212.645 537.306,189.651 537.857,242.354 538.409,226.956 538.96,210.695 539.511,239.172 540.063,261.813 540.614,230.261 541.166,285.517 541.717,188.455 
  542.268,213.529 542.82,198.295 543.371,179.579 543.923,264.887 544.474,153.579 545.025,177.905 545.577,248.621 546.128,131.189 546.68,214.808 547.231,176.518 
  547.782,201.334 548.334,242.839 548.885,204.311 549.437,201.319 549.988,257.617 550.539,274.525 551.091,283.252 551.642,233.891 552.194,285.226 552.745,165.791 
  553.296,202.073 553.848,227.268 554.399,208.11 554.951,244.928 555.502,214.838 556.053,304.198 556.605,138.004 557.156,191.024 557.708,188.014 558.259,118.356 
  558.81,237.29 559.362,259.468 559.913,170.22 560.465,175.251 561.016,260.406 561.567,169.435 562.119,152.461 562.67,213.263 563.222,254.768 563.773,306.029 
  564.324,229.073 564.876,139.62 565.427,226.893 565.979,227.971 566.53,275.905 567.081,248.786 567.633,237.45 568.184,112.957 568.736,237.836 569.287,182.279 
  569.838,254.192 570.39,241.669 570.941,262.119 571.493,189.35 572.044,194.857 572.595,266.053 573.147,291.532 573.698,255.987 574.25,229.217 574.801,101.987 
  575.352,240.514 575.904,174.165 576.455,254.95 577.007,262.302 577.558,171.945 578.109,246.469 578.661,197.019 579.212,258.297 579.764,90.2474 580.315,191.778 
  
  "/>
<polyline clip-path="url(#clip8702)" style="stroke:#e26f46; stroke-width:1; stroke-opacity:1; fill:none" points="
  29.4661,225.916 30.0175,166.988 30.5689,178.063 31.1203,189.345 31.6717,187.631 32.2231,197.868 32.7745,204.602 33.3259,203.289 33.8773,206.101 34.4287,209.567 
  34.9801,210.909 35.5315,216.461 36.0829,212.1 36.6343,207.579 37.1857,207.839 37.7371,208.021 38.2885,205.89 38.8399,205.583 39.3913,203.595 39.9427,201.944 
  40.4941,201.565 41.0455,203.742 41.5969,200.203 42.1483,200.217 42.6997,198.665 43.2511,197.487 43.8025,195.449 44.3539,199.597 44.9053,199.082 45.4567,199.825 
  46.0081,198.957 46.5595,198.991 47.1109,199.173 47.6623,199.743 48.2137,200.726 48.7651,202.069 49.3165,201.161 49.8679,202.461 50.4193,201.836 50.9707,202.985 
  51.5221,203.33 52.0735,203.136 52.6249,201.624 53.1763,201.39 53.7277,200.298 54.2791,200.564 54.8305,200.139 55.3819,200.645 55.9333,199.442 56.4847,199.847 
  57.0361,200.08 57.5875,201.261 58.1389,202.721 58.6903,203.346 59.2417,203.412 59.7931,204.093 60.3445,202.585 60.896,201.285 61.4474,202.139 61.9988,202.151 
  62.5502,203.509 63.1016,203.33 63.653,203.848 64.2044,204.005 64.7558,204.024 65.3072,204.08 65.8586,203.992 66.41,203.195 66.9614,203.216 67.5128,203.436 
  68.0642,204.226 68.6156,204.394 69.167,204.385 69.7184,205.13 70.2698,205.071 70.8212,204.658 71.3726,204.352 71.924,204.417 72.4754,203.911 73.0268,203.462 
  73.5782,203.65 74.1296,203.127 74.681,202.902 75.2324,202.451 75.7838,202.448 76.3352,202.392 76.8866,202.655 77.438,202.703 77.9894,202.41 78.5408,202.136 
  79.0922,202.507 79.6436,201.534 80.195,202.639 80.7464,200.609 81.2978,201.176 81.8492,200.965 82.4006,201.078 82.952,200.683 83.5034,201.031 84.0548,201.049 
  84.6062,201.309 85.1576,201.213 85.709,201.381 86.2604,201.552 86.8118,201.704 87.3632,201.303 87.9146,200.891 88.466,201.245 89.0174,200.968 89.5688,200.518 
  90.1202,200.577 90.6716,200.954 91.223,200.74 91.7744,201.026 92.3258,201.593 92.8772,201.565 93.4286,201.352 93.98,201.55 94.5314,201.699 95.0828,201.883 
  95.6342,201.591 96.1856,201.621 96.737,201.11 97.2884,200.239 97.8398,199.792 98.3912,199.566 98.9426,199.01 99.494,199.349 100.045,200.124 100.597,199.54 
  101.148,199.06 101.7,199.558 102.251,199.738 102.802,199.562 103.354,198.837 103.905,198.959 104.457,198.707 105.008,198.758 105.559,198.424 106.111,198.204 
  106.662,198.225 107.214,198.883 107.765,198.781 108.316,198.8 108.868,199.126 109.419,199.167 109.971,199.347 110.522,199.936 111.073,199.416 111.625,199.531 
  112.176,199.464 112.728,199.607 113.279,199.145 113.83,200.056 114.382,199.716 114.933,199.744 115.485,199.205 116.036,199.445 116.587,199.663 117.139,200.044 
  117.69,199.915 118.242,200.06 118.793,199.931 119.344,200.441 119.896,200.796 120.447,200.501 120.999,200.815 121.55,201.066 122.101,201.304 122.653,201.414 
  123.204,202.137 123.756,201.943 124.307,202.332 124.858,202.426 125.41,202.775 125.961,203.312 126.513,203.201 127.064,203.34 127.615,203.384 128.167,203.422 
  128.718,203.619 129.27,203.867 129.821,203.643 130.372,204.185 130.924,204.471 131.475,204.774 132.027,204.718 132.578,204.479 133.129,204.548 133.681,204.956 
  134.232,205.307 134.784,205.339 135.335,205.588 135.886,205.847 136.438,205.756 136.989,205.71 137.541,205.594 138.092,205.749 138.643,205.812 139.195,205.611 
  139.746,205.795 140.298,206.11 140.849,206.233 141.4,205.964 141.952,206.27 142.503,206.351 143.055,206.635 143.606,206.419 144.157,206.452 144.709,206.395 
  145.26,206.612 145.812,206.662 146.363,206.675 146.914,206.907 147.466,206.654 148.017,206.413 148.569,205.919 149.12,205.594 149.671,206.021 150.223,206.168 
  150.774,206.338 151.326,206.418 151.877,206.123 152.428,206.014 152.98,205.941 153.531,206.019 154.083,205.432 154.634,205.555 155.185,205.497 155.737,205.225 
  156.288,205.455 156.84,205.518 157.391,205.446 157.942,205.418 158.494,205.749 159.045,205.963 159.597,206.166 160.148,206.278 160.699,206.043 161.251,206.251 
  161.802,205.986 162.354,206.1 162.905,206.333 163.456,206.155 164.008,206.097 164.559,205.873 165.111,205.753 165.662,205.787 166.213,205.742 166.765,205.728 
  167.316,205.494 167.868,205.592 168.419,205.404 168.97,205.388 169.522,205.59 170.073,205.57 170.625,205.844 171.176,205.921 171.727,205.55 172.279,205.644 
  172.83,205.675 173.382,205.748 173.933,205.419 174.484,205.562 175.036,205.855 175.587,206.129 176.139,206.094 176.69,206.051 177.241,206.071 177.793,206.364 
  178.344,206.27 178.896,206.284 179.447,206.31 179.998,206.23 180.55,206.418 181.101,206.335 181.653,206.395 182.204,206.673 182.755,206.435 183.307,206.461 
  183.858,206.647 184.41,206.682 184.961,206.77 185.512,206.751 186.064,206.801 186.615,206.8 187.167,206.908 187.718,206.855 188.269,206.898 188.821,207.027 
  189.372,207.231 189.924,207.23 190.475,207.393 191.026,207.549 191.578,207.529 192.129,207.349 192.681,207.353 193.232,207.638 193.783,207.771 194.335,207.817 
  194.886,207.616 195.438,207.467 195.989,207.603 196.54,207.682 197.092,207.554 197.643,207.372 198.195,207.171 198.746,207.063 199.297,207.331 199.849,207.279 
  200.4,207.45 200.952,207.328 201.503,207.229 202.054,207.394 202.606,207.468 203.157,207.507 203.709,207.363 204.26,207.432 204.811,207.476 205.363,207.412 
  205.914,207.273 206.466,207.395 207.017,207.337 207.568,207.364 208.12,207.291 208.671,207.09 209.223,206.858 209.774,206.629 210.325,206.884 210.877,206.979 
  211.428,207.067 211.98,207.273 212.531,207.418 213.082,207.294 213.634,207.096 214.185,207.227 214.737,207.131 215.288,207.108 215.839,207.606 216.391,207.454 
  216.942,207.521 217.494,207.609 218.045,207.641 218.596,207.777 219.148,207.812 219.699,207.774 220.251,207.707 220.802,207.767 221.353,207.797 221.905,207.917 
  222.456,207.93 223.008,207.912 223.559,208.003 224.11,208.185 224.662,208.312 225.213,208.138 225.765,208.375 226.316,208.295 226.867,208.075 227.419,207.962 
  227.97,208.219 228.522,208.076 229.073,208.246 229.624,208.133 230.176,208.236 230.727,207.911 231.279,207.956 231.83,208.381 232.381,208.322 232.933,208.107 
  233.484,208.168 234.036,208.033 234.587,207.978 235.138,207.823 235.69,207.769 236.241,207.617 236.793,207.788 237.344,207.672 237.895,207.761 238.447,207.954 
  238.998,207.763 239.55,207.778 240.101,207.824 240.652,208.182 241.204,208.22 241.755,208.306 242.307,208.29 242.858,208.566 243.409,208.61 243.961,208.577 
  244.512,208.625 245.064,208.494 245.615,208.518 246.166,208.733 246.718,208.679 247.269,208.585 247.821,208.555 248.372,208.412 248.923,208.458 249.475,208.557 
  250.026,208.534 250.578,208.621 251.129,208.721 251.68,208.652 252.232,208.622 252.783,208.533 253.335,208.575 253.886,208.505 254.437,208.467 254.989,208.433 
  255.54,208.406 256.092,208.32 256.643,208.289 257.194,208.257 257.746,208.076 258.297,208.057 258.849,207.999 259.4,208.137 259.951,208.109 260.503,208.223 
  261.054,208.29 261.606,208.322 262.157,208.415 262.708,208.507 263.26,208.544 263.811,208.582 264.363,208.611 264.914,208.66 265.465,208.646 266.017,208.92 
  266.568,208.957 267.12,208.812 267.671,208.787 268.222,208.747 268.774,208.869 269.325,208.771 269.877,208.73 270.428,208.757 270.979,208.696 271.531,208.579 
  272.082,208.753 272.634,208.724 273.185,208.789 273.736,208.817 274.288,208.75 274.839,208.803 275.391,208.781 275.942,208.964 276.493,208.891 277.045,208.995 
  277.596,208.832 278.148,208.756 278.699,208.619 279.25,208.601 279.802,208.716 280.353,208.78 280.905,208.75 281.456,208.73 282.007,208.857 282.559,208.818 
  283.11,208.816 283.662,208.763 284.213,208.731 284.764,208.82 285.316,208.844 285.867,208.854 286.419,208.787 286.97,208.88 287.521,208.948 288.073,208.904 
  288.624,209.067 289.176,209.045 289.727,209.292 290.278,209.409 290.83,209.451 291.381,209.242 291.933,209.308 292.484,209.345 293.035,209.345 293.587,209.337 
  294.138,209.24 294.69,209.237 295.241,209.224 295.792,209.049 296.344,208.951 296.895,209.043 297.447,209.047 297.998,209.051 298.549,208.917 299.101,208.758 
  299.652,208.833 300.204,208.774 300.755,208.815 301.306,208.862 301.858,208.949 302.409,208.873 302.961,208.728 303.512,208.889 304.063,208.955 304.615,208.938 
  305.166,209.013 305.718,209.043 306.269,208.855 306.82,208.744 307.372,208.771 307.923,208.576 308.475,208.666 309.026,208.643 309.577,208.639 310.129,208.593 
  310.68,208.581 311.232,208.586 311.783,208.467 312.334,208.444 312.886,208.388 313.437,208.425 313.989,208.411 314.54,208.358 315.091,208.48 315.643,208.349 
  316.194,208.444 316.746,208.468 317.297,208.516 317.848,208.467 318.4,208.538 318.951,208.485 319.503,208.3 320.054,208.287 320.605,208.248 321.157,208.131 
  321.708,208.052 322.26,207.98 322.811,207.968 323.362,207.934 323.914,207.881 324.465,207.965 325.017,207.918 325.568,207.838 326.119,207.797 326.671,207.819 
  327.222,207.834 327.774,207.943 328.325,208.002 328.876,207.943 329.428,207.955 329.979,208.016 330.531,208.153 331.082,208.151 331.633,208.333 332.185,208.519 
  332.736,208.428 333.288,208.516 333.839,208.519 334.39,208.362 334.942,208.357 335.493,208.312 336.045,208.308 336.596,208.22 337.147,208.182 337.699,208.203 
  338.25,208.302 338.802,208.256 339.353,208.195 339.904,208.113 340.456,208.002 341.007,208.137 341.559,208.004 342.11,208.098 342.661,207.988 343.213,208.118 
  343.764,208.161 344.316,208.297 344.867,208.217 345.418,208.225 345.97,208.291 346.521,208.304 347.073,208.431 347.624,208.568 348.175,208.463 348.727,208.487 
  349.278,208.505 349.83,208.482 350.381,208.539 350.932,208.679 351.484,208.723 352.035,208.633 352.587,208.698 353.138,208.572 353.689,208.514 354.241,208.659 
  354.792,208.722 355.344,208.754 355.895,208.562 356.446,208.492 356.998,208.521 357.549,208.468 358.101,208.336 358.652,208.474 359.203,208.515 359.755,208.588 
  360.306,208.528 360.858,208.51 361.409,208.633 361.96,208.632 362.512,208.616 363.063,208.617 363.615,208.544 364.166,208.582 364.717,208.675 365.269,208.767 
  365.82,208.821 366.372,208.759 366.923,208.84 367.474,208.794 368.026,208.868 368.577,208.951 369.129,208.995 369.68,209.006 370.231,209.097 370.783,209.11 
  371.334,209.122 371.886,209.003 372.437,209.009 372.988,209.072 373.54,208.912 374.091,208.916 374.643,209.033 375.194,209.055 375.745,209.004 376.297,209.019 
  376.848,209.055 377.4,209.03 377.951,208.906 378.502,208.909 379.054,208.913 379.605,208.956 380.157,208.965 380.708,208.949 381.259,208.981 381.811,209.113 
  382.362,209.128 382.914,209.226 383.465,209.231 384.016,209.112 384.568,209.062 385.119,208.903 385.671,208.894 386.222,208.84 386.773,208.906 387.325,208.896 
  387.876,208.883 388.428,208.887 388.979,208.872 389.53,208.958 390.082,208.976 390.633,208.951 391.185,208.952 391.736,208.897 392.287,208.813 392.839,208.823 
  393.39,208.879 393.942,208.886 394.493,208.839 395.044,208.799 395.596,208.77 396.147,208.682 396.699,208.713 397.25,208.693 397.801,208.692 398.353,208.7 
  398.904,208.67 399.456,208.66 400.007,208.7 400.558,208.654 401.11,208.621 401.661,208.62 402.213,208.772 402.764,208.689 403.315,208.623 403.867,208.78 
  404.418,208.82 404.97,208.75 405.521,208.697 406.072,208.692 406.624,208.822 407.175,208.9 407.727,208.894 408.278,208.869 408.829,208.888 409.381,208.863 
  409.932,208.881 410.484,208.874 411.035,208.822 411.586,208.83 412.138,208.83 412.689,208.822 413.241,208.716 413.792,208.796 414.343,208.809 414.895,208.768 
  415.446,208.774 415.998,208.795 416.549,208.899 417.1,208.799 417.652,208.863 418.203,208.922 418.755,208.866 419.306,208.991 419.857,208.998 420.409,208.983 
  420.96,209.006 421.512,208.95 422.063,208.99 422.614,209.013 423.166,209.07 423.717,209.013 424.269,209.086 424.82,208.999 425.371,208.901 425.923,208.836 
  426.474,208.838 427.026,208.905 427.577,208.854 428.128,208.913 428.68,208.823 429.231,208.843 429.783,208.868 430.334,208.897 430.886,208.915 431.437,208.852 
  431.988,208.772 432.54,208.763 433.091,208.732 433.643,208.684 434.194,208.708 434.745,208.733 435.297,208.784 435.848,208.698 436.4,208.719 436.951,208.706 
  437.502,208.729 438.054,208.764 438.605,208.859 439.157,208.859 439.708,208.844 440.259,208.899 440.811,208.887 441.362,208.869 441.914,208.929 442.465,209.077 
  443.016,209.106 443.568,209.157 444.119,209.211 444.671,209.278 445.222,209.251 445.773,209.307 446.325,209.38 446.876,209.453 447.428,209.533 447.979,209.594 
  448.53,209.585 449.082,209.566 449.633,209.529 450.185,209.56 450.736,209.529 451.287,209.561 451.839,209.643 452.39,209.57 452.942,209.631 453.493,209.599 
  454.044,209.646 454.596,209.535 455.147,209.454 455.699,209.295 456.25,209.295 456.801,209.345 457.353,209.356 457.904,209.496 458.456,209.384 459.007,209.373 
  459.558,209.392 460.11,209.371 460.661,209.325 461.213,209.266 461.764,209.243 462.315,209.309 462.867,209.168 463.418,209.093 463.97,209.075 464.521,209.128 
  465.072,209.17 465.624,209.22 466.175,209.125 466.727,209.135 467.278,209.24 467.829,209.135 468.381,209.13 468.932,209.026 469.484,208.98 470.035,209.052 
  470.586,209.143 471.138,209.122 471.689,209.096 472.241,209.123 472.792,209.095 473.343,209.172 473.895,209.151 474.446,209.124 474.998,209.137 475.549,209.128 
  476.1,209.168 476.652,209.182 477.203,209.297 477.755,209.281 478.306,209.313 478.857,209.298 479.409,209.399 479.96,209.411 480.512,209.437 481.063,209.283 
  481.614,209.342 482.166,209.325 482.717,209.301 483.269,209.28 483.82,209.281 484.371,209.308 484.923,209.256 485.474,209.298 486.026,209.263 486.577,209.209 
  487.128,209.226 487.68,209.287 488.231,209.23 488.783,209.157 489.334,209.156 489.885,209.167 490.437,209.164 490.988,209.068 491.54,209.123 492.091,209.112 
  492.642,209.11 493.194,209.114 493.745,209.019 494.297,208.898 494.848,208.935 495.399,209.009 495.951,208.874 496.502,208.873 497.054,208.812 497.605,208.745 
  498.156,208.749 498.708,208.725 499.259,208.773 499.811,208.915 500.362,209.059 500.913,209.061 501.465,209.04 502.016,209.042 502.568,209.067 503.119,209.021 
  503.67,209.077 504.222,209.011 504.773,209.101 505.325,209.139 505.876,209.206 506.427,209.152 506.979,209.175 507.53,209.171 508.082,209.165 508.633,209.103 
  509.184,209.087 509.736,209.116 510.287,209.097 510.839,209.139 511.39,209.094 511.941,209.121 512.493,209.101 513.044,209.057 513.596,209.037 514.147,209.079 
  514.698,209.137 515.25,209.116 515.801,209.133 516.353,209.027 516.904,209.098 517.455,209.098 518.007,209.151 518.558,209.112 519.11,209.085 519.661,209.249 
  520.212,209.342 520.764,209.337 521.315,209.347 521.867,209.344 522.418,209.242 522.969,209.223 523.521,209.234 524.072,209.277 524.624,209.231 525.175,209.273 
  525.726,209.251 526.278,209.178 526.829,209.077 527.381,209.149 527.932,209.105 528.483,209.073 529.035,209.182 529.586,209.136 530.138,209.172 530.689,209.211 
  531.24,209.243 531.792,209.279 532.343,209.411 532.895,209.497 533.446,209.536 533.997,209.617 534.549,209.635 535.1,209.65 535.652,209.693 536.203,209.698 
  536.754,209.702 537.306,209.68 537.857,209.715 538.409,209.734 538.96,209.735 539.511,209.767 540.063,209.823 540.614,209.845 541.166,209.926 541.717,209.903 
  542.268,209.907 542.82,209.895 543.371,209.862 543.923,209.921 544.474,209.861 545.025,209.827 545.577,209.868 546.128,209.784 546.68,209.79 547.231,209.754 
  547.782,209.745 548.334,209.78 548.885,209.775 549.437,209.766 549.988,209.816 550.539,209.885 551.091,209.962 551.642,209.987 552.194,210.067 552.745,210.02 
  553.296,210.012 553.848,210.03 554.399,210.028 554.951,210.064 555.502,210.069 556.053,210.168 556.605,210.093 557.156,210.073 557.708,210.05 558.259,209.954 
  558.81,209.983 559.362,210.034 559.913,209.993 560.465,209.957 561.016,210.009 561.567,209.967 562.119,209.907 562.67,209.911 563.222,209.957 563.773,210.056 
  564.324,210.076 564.876,210.003 565.427,210.021 565.979,210.039 566.53,210.107 567.081,210.146 567.633,210.174 568.184,210.075 568.736,210.103 569.287,210.075 
  569.838,210.12 570.39,210.152 570.941,210.205 571.493,210.184 572.044,210.168 572.595,210.225 573.147,210.307 573.698,210.353 574.25,210.372 574.801,210.263 
  575.352,210.293 575.904,210.257 576.455,210.302 577.007,210.354 577.558,210.316 578.109,210.352 578.661,210.339 579.212,210.387 579.764,210.266 580.315,210.248 
  
  "/>
</svg>
