<?xml version="1.0" encoding="utf-8"?>
<svg xmlns="http://www.w3.org/2000/svg" xmlns:xlink="http://www.w3.org/1999/xlink" width="600" height="400" viewBox="0 0 600 400">
<defs>
  <clipPath id="clip8900">
    <rect x="0" y="0" width="600" height="400"/>
  </clipPath>
</defs>
<polygon clip-path="url(#clip8900)" points="
0,400 600,400 600,0 0,0 
  " fill="#ffffff" fill-opacity="1"/>
<defs>
  <clipPath id="clip8901">
    <rect x="120" y="0" width="421" height="400"/>
  </clipPath>
</defs>
<polygon clip-path="url(#clip8900)" points="
29.4661,360.121 272.441,360.121 272.441,11.811 29.4661,11.811 
  " fill="#ffffff" fill-opacity="1"/>
<defs>
  <clipPath id="clip8902">
    <rect x="29" y="11" width="244" height="349"/>
  </clipPath>
</defs>
<polyline clip-path="url(#clip8902)" style="stroke:#000000; stroke-width:0.5; stroke-opacity:0.1; fill:none" points="
  77.8665,360.121 77.8665,11.811 
  "/>
<polyline clip-path="url(#clip8902)" style="stroke:#000000; stroke-width:0.5; stroke-opacity:0.1; fill:none" points="
  126.51,360.121 126.51,11.811 
  "/>
<polyline clip-path="url(#clip8902)" style="stroke:#000000; stroke-width:0.5; stroke-opacity:0.1; fill:none" points="
  175.154,360.121 175.154,11.811 
  "/>
<polyline clip-path="url(#clip8902)" style="stroke:#000000; stroke-width:0.5; stroke-opacity:0.1; fill:none" points="
  223.797,360.121 223.797,11.811 
  "/>
<polyline clip-path="url(#clip8902)" style="stroke:#000000; stroke-width:0.5; stroke-opacity:0.1; fill:none" points="
  272.441,360.121 272.441,11.811 
  "/>
<polyline clip-path="url(#clip8902)" style="stroke:#000000; stroke-width:0.5; stroke-opacity:0.1; fill:none" points="
  29.4661,291.953 272.441,291.953 
  "/>
<polyline clip-path="url(#clip8902)" style="stroke:#000000; stroke-width:0.5; stroke-opacity:0.1; fill:none" points="
  29.4661,201.802 272.441,201.802 
  "/>
<polyline clip-path="url(#clip8902)" style="stroke:#000000; stroke-width:0.5; stroke-opacity:0.1; fill:none" points="
  29.4661,111.651 272.441,111.651 
  "/>
<polyline clip-path="url(#clip8902)" style="stroke:#000000; stroke-width:0.5; stroke-opacity:0.1; fill:none" points="
  29.4661,21.4999 272.441,21.4999 
  "/>
<polyline clip-path="url(#clip8900)" style="stroke:#000000; stroke-width:1; stroke-opacity:1; fill:none" points="
  29.4661,360.121 272.441,360.121 
  "/>
<polyline clip-path="url(#clip8900)" style="stroke:#000000; stroke-width:1; stroke-opacity:1; fill:none" points="
  29.4661,360.121 29.4661,11.811 
  "/>
<polyline clip-path="url(#clip8900)" style="stroke:#000000; stroke-width:1; stroke-opacity:1; fill:none" points="
  77.8665,360.121 77.8665,354.896 
  "/>
<polyline clip-path="url(#clip8900)" style="stroke:#000000; stroke-width:1; stroke-opacity:1; fill:none" points="
  126.51,360.121 126.51,354.896 
  "/>
<polyline clip-path="url(#clip8900)" style="stroke:#000000; stroke-width:1; stroke-opacity:1; fill:none" points="
  175.154,360.121 175.154,354.896 
  "/>
<polyline clip-path="url(#clip8900)" style="stroke:#000000; stroke-width:1; stroke-opacity:1; fill:none" points="
  223.797,360.121 223.797,354.896 
  "/>
<polyline clip-path="url(#clip8900)" style="stroke:#000000; stroke-width:1; stroke-opacity:1; fill:none" points="
  272.441,360.121 272.441,354.896 
  "/>
<polyline clip-path="url(#clip8900)" style="stroke:#000000; stroke-width:1; stroke-opacity:1; fill:none" points="
  29.4661,291.953 33.1108,291.953 
  "/>
<polyline clip-path="url(#clip8900)" style="stroke:#000000; stroke-width:1; stroke-opacity:1; fill:none" points="
  29.4661,201.802 33.1108,201.802 
  "/>
<polyline clip-path="url(#clip8900)" style="stroke:#000000; stroke-width:1; stroke-opacity:1; fill:none" points="
  29.4661,111.651 33.1108,111.651 
  "/>
<polyline clip-path="url(#clip8900)" style="stroke:#000000; stroke-width:1; stroke-opacity:1; fill:none" points="
  29.4661,21.4999 33.1108,21.4999 
  "/>
<g clip-path="url(#clip8900)">
<text style="fill:#000000; fill-opacity:1; font-family:Arial,Helvetica Neue,Helvetica,sans-serif; font-size:12; text-anchor:middle;" transform="rotate(0, 77.8665, 373.921)" x="77.8665" y="373.921">200</text>
</g>
<g clip-path="url(#clip8900)">
<text style="fill:#000000; fill-opacity:1; font-family:Arial,Helvetica Neue,Helvetica,sans-serif; font-size:12; text-anchor:middle;" transform="rotate(0, 126.51, 373.921)" x="126.51" y="373.921">400</text>
</g>
<g clip-path="url(#clip8900)">
<text style="fill:#000000; fill-opacity:1; font-family:Arial,Helvetica Neue,Helvetica,sans-serif; font-size:12; text-anchor:middle;" transform="rotate(0, 175.154, 373.921)" x="175.154" y="373.921">600</text>
</g>
<g clip-path="url(#clip8900)">
<text style="fill:#000000; fill-opacity:1; font-family:Arial,Helvetica Neue,Helvetica,sans-serif; font-size:12; text-anchor:middle;" transform="rotate(0, 223.797, 373.921)" x="223.797" y="373.921">800</text>
</g>
<g clip-path="url(#clip8900)">
<text style="fill:#000000; fill-opacity:1; font-family:Arial,Helvetica Neue,Helvetica,sans-serif; font-size:12; text-anchor:middle;" transform="rotate(0, 272.441, 373.921)" x="272.441" y="373.921">1000</text>
</g>
<g clip-path="url(#clip8900)">
<text style="fill:#000000; fill-opacity:1; font-family:Arial,Helvetica Neue,Helvetica,sans-serif; font-size:12; text-anchor:end;" transform="rotate(0, 23.4661, 296.453)" x="23.4661" y="296.453">-2</text>
</g>
<g clip-path="url(#clip8900)">
<text style="fill:#000000; fill-opacity:1; font-family:Arial,Helvetica Neue,Helvetica,sans-serif; font-size:12; text-anchor:end;" transform="rotate(0, 23.4661, 206.302)" x="23.4661" y="206.302">0</text>
</g>
<g clip-path="url(#clip8900)">
<text style="fill:#000000; fill-opacity:1; font-family:Arial,Helvetica Neue,Helvetica,sans-serif; font-size:12; text-anchor:end;" transform="rotate(0, 23.4661, 116.151)" x="23.4661" y="116.151">2</text>
</g>
<g clip-path="url(#clip8900)">
<text style="fill:#000000; fill-opacity:1; font-family:Arial,Helvetica Neue,Helvetica,sans-serif; font-size:12; text-anchor:end;" transform="rotate(0, 23.4661, 25.9999)" x="23.4661" y="25.9999">4</text>
</g>
<polyline clip-path="url(#clip8902)" style="stroke:#009af9; stroke-width:1; stroke-opacity:1; fill:none" points="
  29.4661,216.654 29.7094,103.897 29.9526,192.064 30.1958,214.045 30.439,173.466 30.6822,238.795 30.9254,234.918 31.1687,186.212 31.4119,219.22 31.6551,230.859 
  31.8983,215.135 32.1415,266.038 32.3848,153.36 32.628,142.888 32.8712,202.833 33.1144,202.152 33.3576,164.88 33.6008,192.193 33.8441,161.073 34.0873,163.704 
  34.3305,186.102 34.5737,239.18 34.8169,117.573 35.0602,192.368 35.3034,154.95 35.5466,161.28 35.7898,136.798 36.033,298.643 36.2762,177.182 36.5195,212.314 
  36.7627,165.937 37.0059,191.916 37.2491,196.613 37.4923,209.637 37.7356,224.51 37.9788,238.834 38.222,161.686 38.4652,240.21 38.7084,170.924 38.9516,237.59 
  39.1949,208.244 39.4381,187.247 39.6813,132.656 39.9245,183.567 40.1677,146.176 40.4109,203.834 40.6542,173.271 40.8974,215.242 41.1406,136.098 41.3838,210.691 
  41.627,203.059 41.8703,250.719 42.1135,267.115 42.3567,226.742 42.5999,198.544 42.8431,231.603 43.0863,113.519 43.3296,122.202 43.5728,241.307 43.816,194.579 
  44.0592,273.182 44.3024,184.601 44.5457,226.236 44.7889,205.201 45.0321,196.864 45.2753,199.224 45.5185,190.149 45.7617,143.812 46.005,196.31 46.2482,209.669 
  46.4914,248.822 46.7346,207.462 46.9778,195.396 47.2211,248.835 47.4643,192.545 47.7075,166.637 47.9507,173.767 48.1939,200.895 48.4371,157.884 48.6804,161.196 
  48.9236,209.744 49.1668,154.305 49.41,177.004 49.6532,158.394 49.8965,193.995 50.1397,189.518 50.3829,216.05 50.6261,198.436 50.8693,169.503 51.1125,170.627 
  51.3558,226.165 51.599,108.638 51.8422,291.614 52.0854,11.811 52.3286,244.048 52.5718,173.519 52.8151,203.316 53.0583,155.846 53.3015,225.461 53.5447,194.62 
  53.7879,217.926 54.0312,183.786 54.2744,209.574 54.5176,210.219 54.7608,208.571 55.004,152.788 55.2472,151 55.4905,229.251 55.7337,164.176 55.9769,145.452 
  56.2201,198.557 56.4633,232.8 56.7066,169.697 56.9498,223.737 57.193,255.243 57.4362,190.224 57.6794,169.566 57.9226,215.523 58.1659,210.289 58.4091,214.627 
  58.6523,159.875 58.8955,196.838 59.1387,133.286 59.382,89.5241 59.6252,138.721 59.8684,164.333 60.1116,123.902 60.3548,232.499 60.598,286.858 60.8413,119.382 
  61.0845,131.198 61.3277,253.907 61.5709,214.342 61.8141,169.051 62.0574,97.7408 62.3006,206.664 62.5438,157.817 62.787,197.28 63.0302,146.322 63.2734,160.847 
  63.5167,193.007 63.7599,279.57 64.0031,176.817 64.2463,193.288 64.4895,235.921 64.7328,196.854 64.976,216.295 65.2192,274.698 65.4624,117.652 65.7056,207.819 
  65.9488,181.694 66.1921,212.181 66.4353,123.796 66.6785,325.216 66.9217,141.512 67.1649,195.861 67.4081,110.601 67.6514,227.345 67.8946,224.571 68.1378,249.828 
  68.381,172.042 68.6242,214.228 68.8675,171.87 69.1107,271.802 69.3539,248.26 69.5971,145.729 69.8403,242.589 70.0835,232.896 70.3268,231.371 70.57,210.999 
  70.8132,311.51 71.0564,162.014 71.2996,258.044 71.5429,209.872 71.7861,252.461 72.0293,285.068 72.2725,176.241 72.5157,218.614 72.7589,202.462 73.0022,201.687 
  73.2454,229.261 73.4886,238.451 73.7318,156.453 73.975,290.729 74.2183,246.511 74.4615,249.984 74.7047,186.358 74.9479,153.376 75.1911,208.753 75.4343,270.306 
  75.6776,260.835 75.9208,202.695 76.164,242.942 76.4072,245.381 76.6504,180.508 76.8937,188.646 77.1369,175.474 77.3801,226.59 77.6233,209.367 77.8665,158.976 
  78.1097,232.485 78.353,258.396 78.5962,221.636 78.8394,145.272 79.0826,257.483 79.3258,213.94 79.5691,254.147 79.8123,155.299 80.0555,204.454 80.2987,186.588 
  80.5419,241.874 80.7851,208.239 81.0284,201.007 81.2716,245.645 81.5148,146.351 81.758,148.567 82.0012,95.3196 82.2444,129.819 82.4877,286.692 82.7309,228.579 
  82.9741,233.702 83.2173,214.769 83.4605,135.107 83.7038,174.497 83.947,181.744 84.1902,214.396 84.4334,70.2198 84.6766,223.893 84.9198,184.438 85.1631,137.256 
  85.4063,247.774 85.6495,211.087 85.8927,181.065 86.1359,190.814 86.3792,271.34 86.6224,245.779 86.8656,243.64 87.1088,223.057 87.352,144.318 87.5952,245.328 
  87.8385,136.686 88.0817,223.959 88.3249,251.948 88.5681,156.454 88.8113,184.154 89.0546,144.8 89.2978,169.184 89.541,205.324 89.7842,186.775 90.0274,194.039 
  90.2706,141.045 90.5139,220.738 90.7571,151.78 91.0003,193.255 91.2435,246.269 91.4867,192.13 91.73,264.551 91.9732,216.518 92.2164,105.693 92.4596,220.431 
  92.7028,205.04 92.946,215.627 93.1893,114.684 93.4325,232.953 93.6757,271.459 93.9189,267.184 94.1621,189.013 94.4054,186.507 94.6486,202.802 94.8918,273.409 
  95.135,173.62 95.3782,201.516 95.6214,204.458 95.8647,177.052 96.1079,247.303 96.3511,176.061 96.5943,213.796 96.8375,271.837 97.0807,134.85 97.324,204.95 
  97.5672,247.945 97.8104,207.787 98.0536,222.124 98.2968,193.034 98.5401,212.024 98.7833,198.2 99.0265,227.969 99.2697,183.853 99.5129,210.342 99.7561,234.138 
  99.9994,255.404 100.243,198.614 100.486,244.307 100.729,242.949 100.972,193.26 101.215,148.184 101.459,199.905 101.702,280.289 101.945,237.321 102.188,212.274 
  102.432,141.43 102.675,156.321 102.918,238.234 103.161,222.159 103.404,161.824 103.648,145.948 103.891,139.693 104.134,166.966 104.377,277.812 104.621,183.417 
  104.864,249.795 105.107,162.598 105.35,169.284 105.593,248.306 105.837,221.328 106.08,210.649 106.323,155.295 106.566,219.867 106.809,212.677 107.053,179.255 
  107.296,156.318 107.539,236.371 107.782,180.951 108.026,207.434 108.269,176.036 108.512,136.199 108.755,126.033 108.998,126.589 109.242,278.453 109.485,228.338 
  109.728,226.411 109.971,264.127 110.215,244.993 110.458,159.343 110.701,135.48 110.944,240.524 111.187,167.851 111.431,191.482 111.674,360.121 111.917,149.533 
  112.16,220.818 112.403,228.039 112.647,209.732 112.89,243.656 113.133,211.094 113.376,186.716 113.62,176.823 113.863,219.511 114.106,209.293 114.349,239.359 
  114.592,203.838 114.836,193.425 115.079,230.223 115.322,261.152 115.565,242.656 115.809,140.486 116.052,280.562 116.295,172.609 116.538,124.211 116.781,160.701 
  117.025,288.288 117.268,149.996 117.511,258.877 117.754,160.367 117.997,235.475 118.241,85.8845 118.484,215.463 118.727,349.133 118.97,178.851 119.214,123.623 
  119.457,221.372 119.7,151.587 119.943,179.97 120.186,143.924 120.43,180.005 120.673,144.727 120.916,260.713 121.159,157.49 121.403,231.341 121.646,269.442 
  121.889,129.875 122.132,204.687 122.375,216.355 122.619,330.73 122.862,213.798 123.105,231.547 123.348,193.877 123.592,302.08 123.835,216.518 124.078,187.776 
  124.321,218.185 124.564,150.724 124.808,208.977 125.051,281.282 125.294,179.81 125.537,164.623 125.78,188.625 126.024,145.357 126.267,217.694 126.51,237.753 
  126.753,191.065 126.997,233.576 127.24,238.602 127.483,173.538 127.726,188.451 127.969,165.686 128.213,216.568 128.456,172.764 128.699,184.987 128.942,186.716 
  129.186,189.083 129.429,165.955 129.672,187.729 129.915,186.943 130.158,127.923 130.402,192.024 130.645,176.46 130.888,254.773 131.131,188.497 131.374,245.237 
  131.618,226.934 131.861,212.53 132.104,237.536 132.347,237.405 132.591,214.91 132.834,215.547 133.077,212.033 133.32,220.132 133.563,194.31 133.807,312.789 
  134.05,215.72 134.293,140.586 134.536,189.892 134.78,183.748 135.023,250.904 135.266,159.17 135.509,183.288 135.752,211.411 135.996,174.607 136.239,151.251 
  136.482,273.394 136.725,187.695 136.969,227.732 137.212,212.578 137.455,171.715 137.698,222.669 137.941,190.992 138.185,278.812 138.428,168.837 138.671,245.197 
  138.914,130.247 139.157,167.297 139.401,140.802 139.644,192.547 139.887,249.88 140.13,228.364 140.374,187.061 140.617,191.277 140.86,256.022 141.103,183.213 
  141.346,199.41 141.59,176.994 141.833,185.997 142.076,239.816 142.319,210.702 142.563,204.831 142.806,170.498 143.049,242.002 143.292,230.587 143.535,181.032 
  143.779,273.572 144.022,190.84 144.265,311.922 144.508,254.033 144.751,220.111 144.995,105.5 145.238,230.878 145.481,217.636 145.724,201.029 145.968,196.771 
  146.211,156.447 146.454,199.162 146.697,194.839 146.94,119.686 147.184,154.944 147.427,243.132 147.67,202.245 147.913,202.299 148.157,138.221 148.4,125.855 
  148.643,235.457 148.886,172.233 149.129,219.772 149.373,222.597 149.616,241.433 149.859,164.401 150.102,131.114 150.345,277.144 150.589,231.722 150.832,192.228 
  151.075,236.569 151.318,215.03 151.562,109.653 151.805,146.935 152.048,213.218 152.291,106.111 152.534,243.595 152.778,188.903 153.021,198.149 153.264,177.704 
  153.507,194.493 153.751,202.16 153.994,141.694 154.237,188.592 154.48,172.376 154.723,218.113 154.967,193.434 155.21,173.467 155.453,260.592 155.696,134.708 
  155.94,246.855 156.183,212.08 156.426,224.045 156.669,175.224 156.912,235.673 157.156,173.444 157.399,107.021 157.642,193.084 157.885,179.847 158.128,140.684 
  158.372,159.137 158.615,163.331 158.858,193.14 159.101,182.314 159.345,172.152 159.588,242.388 159.831,175.363 160.074,158.337 160.317,177.975 160.561,210.685 
  160.804,207.305 161.047,255.837 161.29,230.373 161.534,168.45 161.777,205.7 162.02,231.439 162.263,271.486 162.506,198.279 162.75,295.642 162.993,297.24 
  163.236,152.221 163.479,246.595 163.722,201.339 163.966,116.772 164.209,197.569 164.452,175.423 164.695,198.021 164.939,152.823 165.182,179.082 165.425,211.18 
  165.668,252.697 165.911,175.149 166.155,166.959 166.398,155.655 166.641,139.675 166.884,272.454 167.128,127.479 167.371,250.323 167.614,139.658 167.857,270.508 
  168.1,223.433 168.344,274.121 168.587,155.58 168.83,204.372 169.073,236.027 169.317,206.778 169.56,270.046 169.803,275.743 170.046,141.996 170.289,213.35 
  170.533,209.451 170.776,187.588 171.019,231.846 171.262,277.819 171.505,224.85 171.749,149.87 171.992,236.522 172.235,129.578 172.478,167.267 172.722,281.635 
  172.965,235.743 173.208,218.604 173.451,91.1271 173.694,160.133 173.938,216.657 174.181,169.925 174.424,124.344 174.667,279.025 174.911,223.224 175.154,241.912 
  175.397,165.727 175.64,189.614 175.883,270.972 176.127,199.486 176.37,191.203 176.613,200.536 176.856,157.62 177.099,221.872 177.343,254.564 177.586,253.855 
  177.829,231.746 178.072,164.24 178.316,247.684 178.559,173.348 178.802,243.557 179.045,249.163 179.288,226.501 179.532,206.891 179.775,254.307 180.018,208.52 
  180.261,207.394 180.505,129.755 180.748,204.198 180.991,238.428 181.234,104.611 181.477,202.979 181.721,270.679 181.964,213.749 182.207,169.444 182.45,209.327 
  182.693,222.237 182.937,185.852 183.18,125.482 183.423,201.726 183.666,203.199 183.91,226.348 184.153,205.751 184.396,190.658 184.639,220.26 184.882,281.339 
  185.126,209.697 185.369,260.861 185.612,203.86 185.855,127.389 186.099,169.427 186.342,102.193 186.585,194.929 186.828,166.983 187.071,240.998 187.315,194.605 
  187.558,192.337 187.801,202.702 188.044,191.062 188.288,253.719 188.531,212.215 188.774,184.278 189.017,201.278 189.26,165.827 189.504,147.545 189.747,206.416 
  189.99,235.774 190.233,204.976 190.476,169.982 190.72,175.429 190.963,181.877 191.206,143.599 191.449,220.026 191.693,187.561 191.936,199.53 192.179,205.576 
  192.422,180.652 192.665,193.644 192.909,226.216 193.152,170.678 193.395,178.497 193.638,199.226 193.882,298.874 194.125,146.277 194.368,157.25 194.611,302.203 
  194.854,226.267 195.098,154.773 195.341,165.923 195.584,196.893 195.827,285.118 196.07,251.609 196.314,196.342 196.557,184.046 196.8,212.706 197.043,184.058 
  197.287,211.866 197.53,195.812 197.773,165.737 198.016,205.834 198.259,200.394 198.503,195.216 198.746,129.473 198.989,253.501 199.232,208.845 199.476,173.154 
  199.719,203.901 199.962,214.242 200.205,270.451 200.448,132.821 200.692,243.952 200.935,240.084 201.178,162.273 201.421,284.898 201.664,205.43 201.908,190.528 
  202.151,215.98 202.394,162.381 202.637,227.636 202.881,216.277 203.124,239.442 203.367,161.425 203.61,250.737 203.853,140.786 204.097,132.543 204.34,155.477 
  204.583,202.19 204.826,246.454 205.07,165.087 205.313,240.961 205.556,138.302 205.799,214.365 206.042,217.492 206.286,220.317 206.529,213.381 206.772,156.289 
  207.015,143.895 207.259,194.034 207.502,178.348 207.745,167.005 207.988,216.565 208.231,218.116 208.475,236.436 208.718,139.4 208.961,215.108 209.204,190.824 
  209.447,216.527 209.691,224.826 209.934,268.221 210.177,200.197 210.42,189.845 210.664,238.992 210.907,192.332 211.15,187.14 211.393,243.324 211.636,306.956 
  211.88,221.438 212.123,236.631 212.366,239.664 212.609,248.809 212.853,181.598 213.096,241.078 213.339,254.029 213.582,253.404 213.825,259.371 214.069,244.758 
  214.312,195.021 214.555,187.151 214.798,173.973 215.041,223.494 215.285,178.18 215.528,224.288 215.771,261.616 216.014,147.604 216.258,245.594 216.501,177.472 
  216.744,235.638 216.987,118.957 217.23,140.958 217.474,83.3658 217.717,201.15 217.96,237.264 218.203,209.134 218.447,305.086 218.69,117.456 218.933,192.394 
  219.176,215.031 219.419,185.646 219.663,166.148 219.906,156.788 220.149,183.417 220.392,250.451 220.636,93.9487 220.879,144.497 221.122,186.631 221.365,240.682 
  221.608,232.309 221.852,238.628 222.095,128.888 222.338,208.172 222.581,280.717 222.824,120.588 223.068,196.43 223.311,121.63 223.554,165.167 223.797,255.103 
  224.041,270.484 224.284,184.392 224.527,180.468 224.77,221.504 225.013,179.262 225.257,259.893 225.5,184.281 225.743,180.103 225.986,210.332 226.23,193.452 
  226.473,231.878 226.716,211.403 226.959,289.82 227.202,189.066 227.446,225.469 227.689,189.178 227.932,279.722 228.175,210.093 228.418,220.785 228.662,80.2991 
  228.905,247.23 229.148,187.261 229.391,181.885 229.635,184.525 229.878,201.249 230.121,221.846 230.364,159.984 230.607,233.693 230.851,173.445 231.094,157.863 
  231.337,213.542 231.58,249.901 231.824,155.127 232.067,142.605 232.31,199.658 232.553,209.415 232.796,198.329 233.04,123.682 233.283,244.583 233.526,191.404 
  233.769,199.29 234.012,203.583 234.256,123.95 234.499,102.6 234.742,230.741 234.985,259.829 235.229,91.115 235.472,199.688 235.715,150.704 235.958,146.294 
  236.201,203.351 236.445,180.782 236.688,239.2 236.931,316.287 237.174,317.996 237.418,201.97 237.661,183.242 237.904,202.661 238.147,220.743 238.39,162.971 
  238.634,246.274 238.877,146.155 239.12,274.897 239.363,232.227 239.607,255.731 239.85,156.523 240.093,219.027 240.336,197.899 240.579,195.569 240.823,148.706 
  241.066,187.349 241.309,225.062 241.552,184 241.795,235.768 242.039,162.96 242.282,223.245 242.525,183.963 242.768,163.614 243.012,183.877 243.255,235.663 
  243.498,249.238 243.741,182.836 243.984,215.081 244.228,110.669 244.471,260.821 244.714,200.829 244.957,245.713 245.201,167.479 245.444,177.647 245.687,340.131 
  245.93,279.428 246.173,196.908 246.417,208.904 246.66,198.366 246.903,113.879 247.146,184.7 247.389,209.948 247.633,237.366 247.876,161.363 248.119,236.751 
  248.362,181.983 248.606,137.335 248.849,113.901 249.092,262.029 249.335,162.705 249.578,172.719 249.822,295.826 250.065,160.417 250.308,231.721 250.551,234.736 
  250.795,228.362 251.038,232.342 251.281,316.204 251.524,275.528 251.767,235.207 252.011,272.369 252.254,216.381 252.497,214.342 252.74,239.391 252.984,205.587 
  253.227,203.958 253.47,181.959 253.713,232.382 253.956,217.649 254.2,202.092 254.443,229.337 254.686,250.999 254.929,220.811 255.172,273.677 255.416,180.814 
  255.659,204.803 255.902,190.229 256.145,172.322 256.389,253.94 256.632,147.446 256.875,170.721 257.118,238.377 257.361,126.025 257.605,206.027 257.848,169.394 
  258.091,193.136 258.334,232.845 258.578,195.984 258.821,193.122 259.064,246.984 259.307,263.161 259.55,271.511 259.794,224.285 260.037,273.399 260.28,159.13 
  260.523,193.843 260.766,217.948 261.01,199.619 261.253,234.844 261.496,206.056 261.739,291.551 261.983,132.545 262.226,183.272 262.469,180.392 262.712,113.748 
  262.955,227.537 263.199,248.755 263.442,163.368 263.685,168.181 263.928,249.653 264.172,162.617 264.415,146.377 264.658,204.548 264.901,244.258 265.144,293.302 
  265.388,219.675 265.631,134.092 265.874,217.59 266.117,218.621 266.36,264.482 266.604,238.535 266.847,227.69 267.09,108.582 267.333,228.059 267.577,174.905 
  267.82,243.708 268.063,231.726 268.306,251.291 268.549,181.67 268.793,186.939 269.036,255.055 269.279,279.432 269.522,245.425 269.766,219.813 270.009,98.0859 
  270.252,230.621 270.495,167.142 270.738,244.433 270.982,251.467 271.225,165.018 271.468,236.318 271.711,189.007 271.955,247.635 272.198,86.8544 272.441,183.993 
  
  "/>
<polyline clip-path="url(#clip8902)" style="stroke:#e26f46; stroke-width:1; stroke-opacity:1; fill:none" points="
  29.4661,216.654 29.7094,160.276 29.9526,170.872 30.1958,181.665 30.439,180.025 30.6822,189.82 30.9254,196.263 31.1687,195.006 31.4119,197.697 31.6551,201.013 
  31.8983,202.297 32.1415,207.609 32.3848,203.436 32.628,199.111 32.8712,199.359 33.1144,199.534 33.3576,197.495 33.6008,197.201 33.8441,195.299 34.0873,193.719 
  34.3305,193.357 34.5737,195.439 34.8169,192.054 35.0602,192.067 35.3034,190.582 35.5466,189.455 35.7898,187.505 36.033,191.474 36.2762,190.981 36.5195,191.693 
  36.7627,190.862 37.0059,190.895 37.2491,191.068 37.4923,191.614 37.7356,192.554 37.9788,193.839 38.222,192.97 38.4652,194.214 38.7084,193.616 38.9516,194.716 
  39.1949,195.046 39.4381,194.86 39.6813,193.413 39.9245,193.19 40.1677,192.145 40.4109,192.399 40.6542,191.992 40.8974,192.476 41.1406,191.326 41.3838,191.713 
  41.627,191.936 41.8703,193.066 42.1135,194.463 42.3567,195.061 42.5999,195.124 42.8431,195.776 43.0863,194.333 43.3296,193.089 43.5728,193.906 43.816,193.917 
  44.0592,195.217 44.3024,195.046 44.5457,195.541 44.7889,195.692 45.0321,195.71 45.2753,195.763 45.5185,195.679 45.7617,194.916 46.005,194.937 46.2482,195.147 
  46.4914,195.903 46.7346,196.064 46.9778,196.054 47.2211,196.768 47.4643,196.711 47.7075,196.316 47.9507,196.023 48.1939,196.085 48.4371,195.602 48.6804,195.172 
  48.9236,195.352 49.1668,194.851 49.41,194.636 49.6532,194.205 49.8965,194.202 50.1397,194.148 50.3829,194.399 50.6261,194.445 50.8693,194.165 51.1125,193.903 
  51.3558,194.258 51.599,193.327 51.8422,194.384 52.0854,192.442 52.3286,192.985 52.5718,192.782 52.8151,192.891 53.0583,192.513 53.3015,192.846 53.5447,192.863 
  53.7879,193.112 54.0312,193.02 54.2744,193.181 54.5176,193.345 54.7608,193.49 55.004,193.106 55.2472,192.712 55.4905,193.051 55.7337,192.786 55.9769,192.355 
  56.2201,192.411 56.4633,192.772 56.7066,192.568 56.9498,192.841 57.193,193.384 57.4362,193.356 57.6794,193.153 57.9226,193.343 58.1659,193.485 58.4091,193.661 
  58.6523,193.382 58.8955,193.41 59.1387,192.922 59.382,192.088 59.6252,191.661 59.8684,191.444 60.1116,190.912 60.3548,191.237 60.598,191.978 60.8413,191.42 
  61.0845,190.96 61.3277,191.437 61.5709,191.609 61.8141,191.441 62.0574,190.747 62.3006,190.864 62.5438,190.623 62.787,190.671 63.0302,190.352 63.2734,190.141 
  63.5167,190.161 63.7599,190.791 64.0031,190.693 64.2463,190.711 64.4895,191.023 64.7328,191.063 64.976,191.235 65.2192,191.799 65.4624,191.301 65.7056,191.411 
  65.9488,191.347 66.1921,191.484 66.4353,191.041 66.6785,191.913 66.9217,191.587 67.1649,191.615 67.4081,191.099 67.6514,191.328 67.8946,191.537 68.1378,191.902 
  68.381,191.778 68.6242,191.917 68.8675,191.794 69.1107,192.282 69.3539,192.621 69.5971,192.339 69.8403,192.639 70.0835,192.879 70.3268,193.107 70.57,193.212 
  70.8132,193.904 71.0564,193.718 71.2996,194.09 71.5429,194.181 71.7861,194.514 72.0293,195.029 72.2725,194.922 72.5157,195.055 72.7589,195.097 73.0022,195.133 
  73.2454,195.322 73.4886,195.559 73.7318,195.345 73.975,195.864 74.2183,196.137 74.4615,196.427 74.7047,196.373 74.9479,196.144 75.1911,196.211 75.4343,196.601 
  75.6776,196.937 75.9208,196.967 76.164,197.206 76.4072,197.454 76.6504,197.367 76.8937,197.323 77.1369,197.212 77.3801,197.36 77.6233,197.42 77.8665,197.228 
  78.1097,197.403 78.353,197.705 78.5962,197.823 78.8394,197.566 79.0826,197.858 79.3258,197.936 79.5691,198.208 79.8123,198.001 80.0555,198.032 80.2987,197.978 
  80.5419,198.186 80.7851,198.233 81.0284,198.246 81.2716,198.468 81.5148,198.225 81.758,197.995 82.0012,197.522 82.2444,197.212 82.4877,197.62 82.7309,197.761 
  82.9741,197.924 83.2173,197.999 83.4605,197.717 83.7038,197.614 83.947,197.543 84.1902,197.618 84.4334,197.057 84.6766,197.174 84.9198,197.119 85.1631,196.858 
  85.4063,197.079 85.6495,197.139 85.8927,197.07 86.1359,197.043 86.3792,197.36 86.6224,197.565 86.8656,197.759 87.1088,197.865 87.352,197.641 87.5952,197.84 
  87.8385,197.586 88.0817,197.695 88.3249,197.919 88.5681,197.749 88.8113,197.693 89.0546,197.478 89.2978,197.364 89.541,197.396 89.7842,197.353 90.0274,197.34 
  90.2706,197.116 90.5139,197.209 90.7571,197.03 91.0003,197.015 91.2435,197.208 91.4867,197.188 91.73,197.45 91.9732,197.524 92.2164,197.17 92.4596,197.259 
  92.7028,197.289 92.946,197.359 93.1893,197.045 93.4325,197.181 93.6757,197.461 93.9189,197.723 94.1621,197.69 94.4054,197.649 94.6486,197.668 94.8918,197.948 
  95.135,197.859 95.3782,197.872 95.6214,197.896 95.8647,197.82 96.1079,198 96.3511,197.92 96.5943,197.978 96.8375,198.243 97.0807,198.016 97.324,198.041 
  97.5672,198.219 97.8104,198.253 98.0536,198.337 98.2968,198.318 98.5401,198.366 98.7833,198.366 99.0265,198.469 99.2697,198.418 99.5129,198.459 99.7561,198.582 
  99.9994,198.778 100.243,198.777 100.486,198.933 100.729,199.082 100.972,199.063 101.215,198.891 101.459,198.894 101.702,199.167 101.945,199.295 102.188,199.338 
  102.432,199.146 102.675,199.004 102.918,199.133 103.161,199.209 103.404,199.086 103.648,198.913 103.891,198.72 104.134,198.617 104.377,198.873 104.621,198.823 
  104.864,198.987 105.107,198.871 105.35,198.776 105.593,198.934 105.837,199.005 106.08,199.042 106.323,198.904 106.566,198.97 106.809,199.013 107.053,198.951 
  107.296,198.818 107.539,198.935 107.782,198.879 108.026,198.905 108.269,198.835 108.512,198.643 108.755,198.421 108.998,198.202 109.242,198.446 109.485,198.536 
  109.728,198.621 109.971,198.818 110.215,198.957 110.458,198.838 110.701,198.649 110.944,198.773 111.187,198.682 111.431,198.66 111.674,199.137 111.917,198.991 
  112.16,199.055 112.403,199.14 112.647,199.17 112.89,199.3 113.133,199.334 113.376,199.297 113.62,199.233 113.863,199.291 114.106,199.32 114.349,199.434 
  114.592,199.447 114.836,199.429 115.079,199.517 115.322,199.691 115.565,199.812 115.809,199.645 116.052,199.872 116.295,199.796 116.538,199.585 116.781,199.477 
  117.025,199.723 117.268,199.586 117.511,199.749 117.754,199.641 117.997,199.739 118.241,199.428 118.484,199.472 118.727,199.878 118.97,199.821 119.214,199.615 
  119.457,199.674 119.7,199.545 119.943,199.492 120.186,199.344 120.43,199.292 120.673,199.147 120.916,199.31 121.159,199.2 121.403,199.285 121.646,199.469 
  121.889,199.287 122.132,199.301 122.375,199.345 122.619,199.687 122.862,199.724 123.105,199.806 123.348,199.791 123.592,200.055 123.835,200.097 124.078,200.065 
  124.321,200.112 124.564,199.986 124.808,200.009 125.051,200.215 125.294,200.163 125.537,200.074 125.78,200.045 126.024,199.907 126.267,199.952 126.51,200.046 
  126.753,200.024 126.997,200.107 127.24,200.203 127.483,200.137 127.726,200.108 127.969,200.023 128.213,200.064 128.456,199.997 128.699,199.96 128.942,199.928 
  129.186,199.902 129.429,199.819 129.672,199.79 129.915,199.759 130.158,199.586 130.402,199.568 130.645,199.512 130.888,199.645 131.131,199.618 131.374,199.727 
  131.618,199.791 131.861,199.821 132.104,199.91 132.347,199.999 132.591,200.034 132.834,200.07 133.077,200.098 133.32,200.145 133.563,200.132 133.807,200.394 
  134.05,200.429 134.293,200.291 134.536,200.267 134.78,200.229 135.023,200.345 135.266,200.251 135.509,200.212 135.752,200.237 135.996,200.179 136.239,200.068 
  136.482,200.234 136.725,200.206 136.969,200.268 137.212,200.296 137.455,200.231 137.698,200.282 137.941,200.261 138.185,200.436 138.428,200.366 138.671,200.465 
  138.914,200.31 139.157,200.237 139.401,200.106 139.644,200.089 139.887,200.198 140.13,200.26 140.374,200.231 140.617,200.212 140.86,200.333 141.103,200.296 
  141.346,200.294 141.59,200.244 141.833,200.213 142.076,200.298 142.319,200.321 142.563,200.33 142.806,200.266 143.049,200.356 143.292,200.42 143.535,200.379 
  143.779,200.534 144.022,200.514 144.265,200.749 144.508,200.862 144.751,200.902 144.995,200.702 145.238,200.765 145.481,200.8 145.724,200.801 145.968,200.792 
  146.211,200.7 146.454,200.697 146.697,200.685 146.94,200.517 147.184,200.424 147.427,200.511 147.67,200.515 147.913,200.519 148.157,200.391 148.4,200.239 
  148.643,200.311 148.886,200.254 149.129,200.293 149.373,200.339 149.616,200.422 149.859,200.349 150.102,200.21 150.345,200.364 150.589,200.427 150.832,200.411 
  151.075,200.483 151.318,200.512 151.562,200.331 151.805,200.225 152.048,200.251 152.291,200.065 152.534,200.151 152.778,200.128 153.021,200.125 153.264,200.081 
  153.507,200.07 153.751,200.074 153.994,199.96 154.237,199.938 154.48,199.884 154.723,199.92 154.967,199.907 155.21,199.856 155.453,199.973 155.696,199.848 
  155.94,199.938 156.183,199.961 156.426,200.007 156.669,199.96 156.912,200.028 157.156,199.977 157.399,199.801 157.642,199.788 157.885,199.751 158.128,199.639 
  158.372,199.563 158.615,199.495 158.858,199.483 159.101,199.451 159.345,199.4 159.588,199.48 159.831,199.435 160.074,199.359 160.317,199.319 160.561,199.34 
  160.804,199.355 161.047,199.459 161.29,199.516 161.534,199.459 161.777,199.47 162.02,199.529 162.263,199.66 162.506,199.658 162.75,199.833 162.993,200.01 
  163.236,199.923 163.479,200.007 163.722,200.01 163.966,199.86 164.209,199.855 164.452,199.812 164.695,199.808 164.939,199.724 165.182,199.687 165.425,199.708 
  165.668,199.802 165.911,199.758 166.155,199.7 166.398,199.622 166.641,199.516 166.884,199.645 167.128,199.517 167.371,199.607 167.614,199.502 167.857,199.626 
  168.1,199.668 168.344,199.798 168.587,199.721 168.83,199.729 169.073,199.792 169.317,199.804 169.56,199.926 169.803,200.057 170.046,199.957 170.289,199.98 
  170.533,199.996 170.776,199.975 171.019,200.03 171.262,200.163 171.505,200.205 171.749,200.119 171.992,200.181 172.235,200.061 172.478,200.005 172.722,200.144 
  172.965,200.204 173.208,200.235 173.451,200.051 173.694,199.984 173.938,200.012 174.181,199.961 174.424,199.835 174.667,199.967 174.911,200.006 175.154,200.076 
  175.397,200.019 175.64,200.001 175.883,200.119 176.127,200.118 176.37,200.103 176.613,200.104 176.856,200.034 177.099,200.07 177.343,200.159 177.586,200.247 
  177.829,200.299 178.072,200.24 178.316,200.317 178.559,200.273 178.802,200.344 179.045,200.423 179.288,200.465 179.532,200.476 179.775,200.563 180.018,200.576 
  180.261,200.587 180.505,200.473 180.748,200.479 180.991,200.539 181.234,200.386 181.477,200.39 181.721,200.502 181.964,200.523 182.207,200.474 182.45,200.488 
  182.693,200.522 182.937,200.499 183.18,200.381 183.423,200.383 183.666,200.387 183.91,200.428 184.153,200.436 184.396,200.421 184.639,200.452 184.882,200.579 
  185.126,200.593 185.369,200.687 185.612,200.692 185.855,200.578 186.099,200.529 186.342,200.377 186.585,200.369 186.828,200.317 187.071,200.38 187.315,200.371 
  187.558,200.359 187.801,200.362 188.044,200.348 188.288,200.43 188.531,200.448 188.774,200.423 189.017,200.424 189.26,200.372 189.504,200.292 189.747,200.301 
  189.99,200.355 190.233,200.362 190.476,200.316 190.72,200.278 190.963,200.251 191.206,200.165 191.449,200.195 191.693,200.176 191.936,200.175 192.179,200.183 
  192.422,200.154 192.665,200.145 192.909,200.183 193.152,200.14 193.395,200.108 193.638,200.106 193.882,200.252 194.125,200.173 194.368,200.109 194.611,200.259 
  194.854,200.298 195.098,200.231 195.341,200.181 195.584,200.176 195.827,200.3 196.07,200.375 196.314,200.369 196.557,200.345 196.8,200.363 197.043,200.339 
  197.287,200.356 197.53,200.349 197.773,200.3 198.016,200.307 198.259,200.308 198.503,200.3 198.746,200.199 198.989,200.275 199.232,200.287 199.476,200.249 
  199.719,200.254 199.962,200.274 200.205,200.374 200.448,200.278 200.692,200.34 200.935,200.396 201.178,200.342 201.421,200.461 201.664,200.468 201.908,200.454 
  202.151,200.476 202.394,200.423 202.637,200.461 202.881,200.483 203.124,200.537 203.367,200.483 203.61,200.553 203.853,200.47 204.097,200.375 204.34,200.313 
  204.583,200.315 204.826,200.379 205.07,200.331 205.313,200.387 205.556,200.301 205.799,200.32 206.042,200.344 206.286,200.371 206.529,200.389 206.772,200.329 
  207.015,200.252 207.259,200.243 207.502,200.213 207.745,200.168 207.988,200.19 208.231,200.215 208.475,200.264 208.718,200.181 208.961,200.202 209.204,200.189 
  209.447,200.211 209.691,200.244 209.934,200.336 210.177,200.335 210.42,200.321 210.664,200.373 210.907,200.362 211.15,200.345 211.393,200.402 211.636,200.544 
  211.88,200.572 212.123,200.62 212.366,200.672 212.609,200.736 212.853,200.71 213.096,200.764 213.339,200.834 213.582,200.903 213.825,200.981 214.069,201.038 
  214.312,201.03 214.555,201.012 214.798,200.977 215.041,201.006 215.285,200.976 215.528,201.007 215.771,201.086 216.014,201.016 216.258,201.074 216.501,201.043 
  216.744,201.088 216.987,200.982 217.23,200.904 217.474,200.752 217.717,200.753 217.96,200.8 218.203,200.811 218.447,200.945 218.69,200.837 218.933,200.827 
  219.176,200.845 219.419,200.825 219.663,200.781 219.906,200.725 220.149,200.703 220.392,200.766 220.636,200.63 220.879,200.559 221.122,200.542 221.365,200.592 
  221.608,200.633 221.852,200.68 222.095,200.59 222.338,200.599 222.581,200.7 222.824,200.6 223.068,200.594 223.311,200.495 223.554,200.451 223.797,200.52 
  224.041,200.607 224.284,200.587 224.527,200.562 224.77,200.588 225.013,200.561 225.257,200.635 225.5,200.615 225.743,200.589 225.986,200.601 226.23,200.592 
  226.473,200.631 226.716,200.644 226.959,200.754 227.202,200.74 227.446,200.77 227.689,200.756 227.932,200.852 228.175,200.864 228.418,200.888 228.662,200.741 
  228.905,200.798 229.148,200.781 229.391,200.758 229.635,200.738 229.878,200.739 230.121,200.765 230.364,200.715 230.607,200.755 230.851,200.722 231.094,200.67 
  231.337,200.686 231.58,200.745 231.824,200.69 232.067,200.621 232.31,200.62 232.553,200.63 232.796,200.627 233.04,200.536 233.283,200.588 233.526,200.577 
  233.769,200.576 234.012,200.579 234.256,200.488 234.499,200.372 234.742,200.408 234.985,200.478 235.229,200.349 235.472,200.349 235.715,200.29 235.958,200.227 
  236.201,200.23 236.445,200.207 236.688,200.253 236.931,200.389 237.174,200.526 237.418,200.528 237.661,200.508 237.904,200.511 238.147,200.534 238.39,200.49 
  238.634,200.544 238.877,200.48 239.12,200.567 239.363,200.603 239.607,200.667 239.85,200.616 240.093,200.637 240.336,200.634 240.579,200.628 240.823,200.569 
  241.066,200.553 241.309,200.582 241.552,200.563 241.795,200.603 242.039,200.56 242.282,200.586 242.525,200.567 242.768,200.525 243.012,200.506 243.255,200.546 
  243.498,200.601 243.741,200.581 243.984,200.597 244.228,200.496 244.471,200.564 244.714,200.564 244.957,200.615 245.201,200.578 245.444,200.552 245.687,200.709 
  245.93,200.797 246.173,200.793 246.417,200.802 246.66,200.799 246.903,200.702 247.146,200.684 247.389,200.694 247.633,200.735 247.876,200.691 248.119,200.731 
  248.362,200.711 248.606,200.64 248.849,200.544 249.092,200.612 249.335,200.57 249.578,200.54 249.822,200.645 250.065,200.6 250.308,200.635 250.551,200.672 
  250.795,200.703 251.038,200.737 251.281,200.864 251.524,200.945 251.767,200.983 252.011,201.061 252.254,201.078 252.497,201.092 252.74,201.134 252.984,201.138 
  253.227,201.142 253.47,201.121 253.713,201.155 253.956,201.172 254.2,201.173 254.443,201.204 254.686,201.258 254.929,201.279 255.172,201.357 255.416,201.334 
  255.659,201.338 255.902,201.326 256.145,201.295 256.389,201.352 256.632,201.294 256.875,201.261 257.118,201.301 257.361,201.221 257.605,201.226 257.848,201.192 
  258.091,201.183 258.334,201.217 258.578,201.211 258.821,201.203 259.064,201.251 259.307,201.317 259.55,201.391 259.794,201.415 260.037,201.491 260.28,201.446 
  260.523,201.438 260.766,201.456 261.01,201.454 261.253,201.489 261.496,201.493 261.739,201.588 261.983,201.515 262.226,201.496 262.469,201.474 262.712,201.383 
  262.955,201.41 263.199,201.459 263.442,201.42 263.685,201.385 263.928,201.435 264.172,201.395 264.415,201.338 264.658,201.342 264.901,201.386 265.144,201.481 
  265.388,201.499 265.631,201.43 265.874,201.447 266.117,201.464 266.36,201.529 266.604,201.567 266.847,201.594 267.09,201.499 267.333,201.526 267.577,201.499 
  267.82,201.542 268.063,201.572 268.306,201.623 268.549,201.603 268.793,201.588 269.036,201.642 269.279,201.721 269.522,201.765 269.766,201.783 270.009,201.678 
  270.252,201.708 270.495,201.673 270.738,201.716 270.982,201.766 271.225,201.729 271.468,201.764 271.711,201.751 271.955,201.797 272.198,201.682 272.441,201.664 
  
  "/>
<polygon clip-path="url(#clip8900)" points="
337.34,360.121 580.315,360.121 580.315,11.811 337.34,11.811 
  " fill="#ffffff" fill-opacity="1"/>
<defs>
  <clipPath id="clip8903">
    <rect x="337" y="11" width="244" height="349"/>
  </clipPath>
</defs>
<polyline clip-path="url(#clip8903)" style="stroke:#000000; stroke-width:0.5; stroke-opacity:0.1; fill:none" points="
  337.34,360.121 337.34,11.811 
  "/>
<polyline clip-path="url(#clip8903)" style="stroke:#000000; stroke-width:0.5; stroke-opacity:0.1; fill:none" points="
  391.335,360.121 391.335,11.811 
  "/>
<polyline clip-path="url(#clip8903)" style="stroke:#000000; stroke-width:0.5; stroke-opacity:0.1; fill:none" points="
  445.329,360.121 445.329,11.811 
  "/>
<polyline clip-path="url(#clip8903)" style="stroke:#000000; stroke-width:0.5; stroke-opacity:0.1; fill:none" points="
  499.323,360.121 499.323,11.811 
  "/>
<polyline clip-path="url(#clip8903)" style="stroke:#000000; stroke-width:0.5; stroke-opacity:0.1; fill:none" points="
  553.318,360.121 553.318,11.811 
  "/>
<polyline clip-path="url(#clip8903)" style="stroke:#000000; stroke-width:0.5; stroke-opacity:0.1; fill:none" points="
  337.34,283.712 580.315,283.712 
  "/>
<polyline clip-path="url(#clip8903)" style="stroke:#000000; stroke-width:0.5; stroke-opacity:0.1; fill:none" points="
  337.34,200.524 580.315,200.524 
  "/>
<polyline clip-path="url(#clip8903)" style="stroke:#000000; stroke-width:0.5; stroke-opacity:0.1; fill:none" points="
  337.34,117.335 580.315,117.335 
  "/>
<polyline clip-path="url(#clip8903)" style="stroke:#000000; stroke-width:0.5; stroke-opacity:0.1; fill:none" points="
  337.34,34.1471 580.315,34.1471 
  "/>
<polyline clip-path="url(#clip8900)" style="stroke:#000000; stroke-width:1; stroke-opacity:1; fill:none" points="
  337.34,360.121 580.315,360.121 
  "/>
<polyline clip-path="url(#clip8900)" style="stroke:#000000; stroke-width:1; stroke-opacity:1; fill:none" points="
  337.34,360.121 337.34,11.811 
  "/>
<polyline clip-path="url(#clip8900)" style="stroke:#000000; stroke-width:1; stroke-opacity:1; fill:none" points="
  337.34,360.121 337.34,354.896 
  "/>
<polyline clip-path="url(#clip8900)" style="stroke:#000000; stroke-width:1; stroke-opacity:1; fill:none" points="
  391.335,360.121 391.335,354.896 
  "/>
<polyline clip-path="url(#clip8900)" style="stroke:#000000; stroke-width:1; stroke-opacity:1; fill:none" points="
  445.329,360.121 445.329,354.896 
  "/>
<polyline clip-path="url(#clip8900)" style="stroke:#000000; stroke-width:1; stroke-opacity:1; fill:none" points="
  499.323,360.121 499.323,354.896 
  "/>
<polyline clip-path="url(#clip8900)" style="stroke:#000000; stroke-width:1; stroke-opacity:1; fill:none" points="
  553.318,360.121 553.318,354.896 
  "/>
<polyline clip-path="url(#clip8900)" style="stroke:#000000; stroke-width:1; stroke-opacity:1; fill:none" points="
  337.34,283.712 340.985,283.712 
  "/>
<polyline clip-path="url(#clip8900)" style="stroke:#000000; stroke-width:1; stroke-opacity:1; fill:none" points="
  337.34,200.524 340.985,200.524 
  "/>
<polyline clip-path="url(#clip8900)" style="stroke:#000000; stroke-width:1; stroke-opacity:1; fill:none" points="
  337.34,117.335 340.985,117.335 
  "/>
<polyline clip-path="url(#clip8900)" style="stroke:#000000; stroke-width:1; stroke-opacity:1; fill:none" points="
  337.34,34.1471 340.985,34.1471 
  "/>
<g clip-path="url(#clip8900)">
<text style="fill:#000000; fill-opacity:1; font-family:Arial,Helvetica Neue,Helvetica,sans-serif; font-size:12; text-anchor:middle;" transform="rotate(0, 337.34, 373.921)" x="337.34" y="373.921">0</text>
</g>
<g clip-path="url(#clip8900)">
<text style="fill:#000000; fill-opacity:1; font-family:Arial,Helvetica Neue,Helvetica,sans-serif; font-size:12; text-anchor:middle;" transform="rotate(0, 391.335, 373.921)" x="391.335" y="373.921">10</text>
</g>
<g clip-path="url(#clip8900)">
<text style="fill:#000000; fill-opacity:1; font-family:Arial,Helvetica Neue,Helvetica,sans-serif; font-size:12; text-anchor:middle;" transform="rotate(0, 445.329, 373.921)" x="445.329" y="373.921">20</text>
</g>
<g clip-path="url(#clip8900)">
<text style="fill:#000000; fill-opacity:1; font-family:Arial,Helvetica Neue,Helvetica,sans-serif; font-size:12; text-anchor:middle;" transform="rotate(0, 499.323, 373.921)" x="499.323" y="373.921">30</text>
</g>
<g clip-path="url(#clip8900)">
<text style="fill:#000000; fill-opacity:1; font-family:Arial,Helvetica Neue,Helvetica,sans-serif; font-size:12; text-anchor:middle;" transform="rotate(0, 553.318, 373.921)" x="553.318" y="373.921">40</text>
</g>
<g clip-path="url(#clip8900)">
<text style="fill:#000000; fill-opacity:1; font-family:Arial,Helvetica Neue,Helvetica,sans-serif; font-size:12; text-anchor:end;" transform="rotate(0, 331.34, 288.212)" x="331.34" y="288.212">-2</text>
</g>
<g clip-path="url(#clip8900)">
<text style="fill:#000000; fill-opacity:1; font-family:Arial,Helvetica Neue,Helvetica,sans-serif; font-size:12; text-anchor:end;" transform="rotate(0, 331.34, 205.024)" x="331.34" y="205.024">0</text>
</g>
<g clip-path="url(#clip8900)">
<text style="fill:#000000; fill-opacity:1; font-family:Arial,Helvetica Neue,Helvetica,sans-serif; font-size:12; text-anchor:end;" transform="rotate(0, 331.34, 121.835)" x="331.34" y="121.835">2</text>
</g>
<g clip-path="url(#clip8900)">
<text style="fill:#000000; fill-opacity:1; font-family:Arial,Helvetica Neue,Helvetica,sans-serif; font-size:12; text-anchor:end;" transform="rotate(0, 331.34, 38.6471)" x="331.34" y="38.6471">4</text>
</g>
<g clip-path="url(#clip8900)">
<text style="fill:#000000; fill-opacity:1; font-family:Arial,Helvetica Neue,Helvetica,sans-serif; font-size:16; text-anchor:middle;" transform="rotate(0, 458.828, 397.6)" x="458.828" y="397.6">COUNT</text>
</g>
<g clip-path="url(#clip8900)">
<text style="fill:#000000; fill-opacity:1; font-family:Arial,Helvetica Neue,Helvetica,sans-serif; font-size:16; text-anchor:middle;" transform="rotate(-90, 306.526, 185.966)" x="306.526" y="185.966">Variance</text>
</g>
<polygon clip-path="url(#clip8903)" points="
342.74,350.263 337.34,350.263 337.34,346.103 342.74,346.103 342.74,350.263 342.74,350.263 
  " fill="#009af9" fill-opacity="1"/>
<polyline clip-path="url(#clip8903)" style="stroke:#000000; stroke-width:1; stroke-opacity:1; fill:none" points="
  342.74,350.263 337.34,350.263 337.34,346.103 342.74,346.103 342.74,350.263 
  "/>
<polygon clip-path="url(#clip8903)" points="
337.34,346.103 337.34,346.103 337.34,341.944 337.34,341.944 337.34,346.103 337.34,346.103 
  " fill="#009af9" fill-opacity="1"/>
<polyline clip-path="url(#clip8903)" style="stroke:#000000; stroke-width:1; stroke-opacity:1; fill:none" points="
  337.34,346.103 337.34,346.103 337.34,341.944 337.34,346.103 
  "/>
<polygon clip-path="url(#clip8903)" points="
337.34,341.944 337.34,341.944 337.34,337.785 337.34,337.785 337.34,341.944 337.34,341.944 
  " fill="#009af9" fill-opacity="1"/>
<polyline clip-path="url(#clip8903)" style="stroke:#000000; stroke-width:1; stroke-opacity:1; fill:none" points="
  337.34,341.944 337.34,341.944 337.34,337.785 337.34,341.944 
  "/>
<polygon clip-path="url(#clip8903)" points="
342.74,337.785 337.34,337.785 337.34,333.625 342.74,333.625 342.74,337.785 342.74,337.785 
  " fill="#009af9" fill-opacity="1"/>
<polyline clip-path="url(#clip8903)" style="stroke:#000000; stroke-width:1; stroke-opacity:1; fill:none" points="
  342.74,337.785 337.34,337.785 337.34,333.625 342.74,333.625 342.74,337.785 
  "/>
<polygon clip-path="url(#clip8903)" points="
337.34,333.625 337.34,333.625 337.34,329.466 337.34,329.466 337.34,333.625 337.34,333.625 
  " fill="#009af9" fill-opacity="1"/>
<polyline clip-path="url(#clip8903)" style="stroke:#000000; stroke-width:1; stroke-opacity:1; fill:none" points="
  337.34,333.625 337.34,333.625 337.34,329.466 337.34,333.625 
  "/>
<polygon clip-path="url(#clip8903)" points="
342.74,329.466 337.34,329.466 337.34,325.306 342.74,325.306 342.74,329.466 342.74,329.466 
  " fill="#009af9" fill-opacity="1"/>
<polyline clip-path="url(#clip8903)" style="stroke:#000000; stroke-width:1; stroke-opacity:1; fill:none" points="
  342.74,329.466 337.34,329.466 337.34,325.306 342.74,325.306 342.74,329.466 
  "/>
<polygon clip-path="url(#clip8903)" points="
337.34,325.306 337.34,325.306 337.34,321.147 337.34,321.147 337.34,325.306 337.34,325.306 
  " fill="#009af9" fill-opacity="1"/>
<polyline clip-path="url(#clip8903)" style="stroke:#000000; stroke-width:1; stroke-opacity:1; fill:none" points="
  337.34,325.306 337.34,325.306 337.34,321.147 337.34,325.306 
  "/>
<polygon clip-path="url(#clip8903)" points="
342.74,321.147 337.34,321.147 337.34,316.987 342.74,316.987 342.74,321.147 342.74,321.147 
  " fill="#009af9" fill-opacity="1"/>
<polyline clip-path="url(#clip8903)" style="stroke:#000000; stroke-width:1; stroke-opacity:1; fill:none" points="
  342.74,321.147 337.34,321.147 337.34,316.987 342.74,316.987 342.74,321.147 
  "/>
<polygon clip-path="url(#clip8903)" points="
342.74,316.987 337.34,316.987 337.34,312.828 342.74,312.828 342.74,316.987 342.74,316.987 
  " fill="#009af9" fill-opacity="1"/>
<polyline clip-path="url(#clip8903)" style="stroke:#000000; stroke-width:1; stroke-opacity:1; fill:none" points="
  342.74,316.987 337.34,316.987 337.34,312.828 342.74,312.828 342.74,316.987 
  "/>
<polygon clip-path="url(#clip8903)" points="
337.34,312.828 337.34,312.828 337.34,308.669 337.34,308.669 337.34,312.828 337.34,312.828 
  " fill="#009af9" fill-opacity="1"/>
<polyline clip-path="url(#clip8903)" style="stroke:#000000; stroke-width:1; stroke-opacity:1; fill:none" points="
  337.34,312.828 337.34,312.828 337.34,308.669 337.34,312.828 
  "/>
<polygon clip-path="url(#clip8903)" points="
353.538,308.669 337.34,308.669 337.34,304.509 353.538,304.509 353.538,308.669 353.538,308.669 
  " fill="#009af9" fill-opacity="1"/>
<polyline clip-path="url(#clip8903)" style="stroke:#000000; stroke-width:1; stroke-opacity:1; fill:none" points="
  353.538,308.669 337.34,308.669 337.34,304.509 353.538,304.509 353.538,308.669 
  "/>
<polygon clip-path="url(#clip8903)" points="
353.538,304.509 337.34,304.509 337.34,300.35 353.538,300.35 353.538,304.509 353.538,304.509 
  " fill="#009af9" fill-opacity="1"/>
<polyline clip-path="url(#clip8903)" style="stroke:#000000; stroke-width:1; stroke-opacity:1; fill:none" points="
  353.538,304.509 337.34,304.509 337.34,300.35 353.538,300.35 353.538,304.509 
  "/>
<polygon clip-path="url(#clip8903)" points="
342.74,300.35 337.34,300.35 337.34,296.19 342.74,296.19 342.74,300.35 342.74,300.35 
  " fill="#009af9" fill-opacity="1"/>
<polyline clip-path="url(#clip8903)" style="stroke:#000000; stroke-width:1; stroke-opacity:1; fill:none" points="
  342.74,300.35 337.34,300.35 337.34,296.19 342.74,296.19 342.74,300.35 
  "/>
<polygon clip-path="url(#clip8903)" points="
353.538,296.19 337.34,296.19 337.34,292.031 353.538,292.031 353.538,296.19 353.538,296.19 
  " fill="#009af9" fill-opacity="1"/>
<polyline clip-path="url(#clip8903)" style="stroke:#000000; stroke-width:1; stroke-opacity:1; fill:none" points="
  353.538,296.19 337.34,296.19 337.34,292.031 353.538,292.031 353.538,296.19 
  "/>
<polygon clip-path="url(#clip8903)" points="
353.538,292.031 337.34,292.031 337.34,287.872 353.538,287.872 353.538,292.031 353.538,292.031 
  " fill="#009af9" fill-opacity="1"/>
<polyline clip-path="url(#clip8903)" style="stroke:#000000; stroke-width:1; stroke-opacity:1; fill:none" points="
  353.538,292.031 337.34,292.031 337.34,287.872 353.538,287.872 353.538,292.031 
  "/>
<polygon clip-path="url(#clip8903)" points="
353.538,287.872 337.34,287.872 337.34,283.712 353.538,283.712 353.538,287.872 353.538,287.872 
  " fill="#009af9" fill-opacity="1"/>
<polyline clip-path="url(#clip8903)" style="stroke:#000000; stroke-width:1; stroke-opacity:1; fill:none" points="
  353.538,287.872 337.34,287.872 337.34,283.712 353.538,283.712 353.538,287.872 
  "/>
<polygon clip-path="url(#clip8903)" points="
364.337,283.712 337.34,283.712 337.34,279.553 364.337,279.553 364.337,283.712 364.337,283.712 
  " fill="#009af9" fill-opacity="1"/>
<polyline clip-path="url(#clip8903)" style="stroke:#000000; stroke-width:1; stroke-opacity:1; fill:none" points="
  364.337,283.712 337.34,283.712 337.34,279.553 364.337,279.553 364.337,283.712 
  "/>
<polygon clip-path="url(#clip8903)" points="
364.337,279.553 337.34,279.553 337.34,275.393 364.337,275.393 364.337,279.553 364.337,279.553 
  " fill="#009af9" fill-opacity="1"/>
<polyline clip-path="url(#clip8903)" style="stroke:#000000; stroke-width:1; stroke-opacity:1; fill:none" points="
  364.337,279.553 337.34,279.553 337.34,275.393 364.337,275.393 364.337,279.553 
  "/>
<polygon clip-path="url(#clip8903)" points="
407.533,275.393 337.34,275.393 337.34,271.234 407.533,271.234 407.533,275.393 407.533,275.393 
  " fill="#009af9" fill-opacity="1"/>
<polyline clip-path="url(#clip8903)" style="stroke:#000000; stroke-width:1; stroke-opacity:1; fill:none" points="
  407.533,275.393 337.34,275.393 337.34,271.234 407.533,271.234 407.533,275.393 
  "/>
<polygon clip-path="url(#clip8903)" points="
380.536,271.234 337.34,271.234 337.34,267.074 380.536,267.074 380.536,271.234 380.536,271.234 
  " fill="#009af9" fill-opacity="1"/>
<polyline clip-path="url(#clip8903)" style="stroke:#000000; stroke-width:1; stroke-opacity:1; fill:none" points="
  380.536,271.234 337.34,271.234 337.34,267.074 380.536,267.074 380.536,271.234 
  "/>
<polygon clip-path="url(#clip8903)" points="
456.128,267.074 337.34,267.074 337.34,262.915 456.128,262.915 456.128,267.074 456.128,267.074 
  " fill="#009af9" fill-opacity="1"/>
<polyline clip-path="url(#clip8903)" style="stroke:#000000; stroke-width:1; stroke-opacity:1; fill:none" points="
  456.128,267.074 337.34,267.074 337.34,262.915 456.128,262.915 456.128,267.074 
  "/>
<polygon clip-path="url(#clip8903)" points="
358.938,262.915 337.34,262.915 337.34,258.756 358.938,258.756 358.938,262.915 358.938,262.915 
  " fill="#009af9" fill-opacity="1"/>
<polyline clip-path="url(#clip8903)" style="stroke:#000000; stroke-width:1; stroke-opacity:1; fill:none" points="
  358.938,262.915 337.34,262.915 337.34,258.756 358.938,258.756 358.938,262.915 
  "/>
<polygon clip-path="url(#clip8903)" points="
402.133,258.756 337.34,258.756 337.34,254.596 402.133,254.596 402.133,258.756 402.133,258.756 
  " fill="#009af9" fill-opacity="1"/>
<polyline clip-path="url(#clip8903)" style="stroke:#000000; stroke-width:1; stroke-opacity:1; fill:none" points="
  402.133,258.756 337.34,258.756 337.34,254.596 402.133,254.596 402.133,258.756 
  "/>
<polygon clip-path="url(#clip8903)" points="
380.536,254.596 337.34,254.596 337.34,250.437 380.536,250.437 380.536,254.596 380.536,254.596 
  " fill="#009af9" fill-opacity="1"/>
<polyline clip-path="url(#clip8903)" style="stroke:#000000; stroke-width:1; stroke-opacity:1; fill:none" points="
  380.536,254.596 337.34,254.596 337.34,250.437 380.536,250.437 380.536,254.596 
  "/>
<polygon clip-path="url(#clip8903)" points="
461.527,250.437 337.34,250.437 337.34,246.277 461.527,246.277 461.527,250.437 461.527,250.437 
  " fill="#009af9" fill-opacity="1"/>
<polyline clip-path="url(#clip8903)" style="stroke:#000000; stroke-width:1; stroke-opacity:1; fill:none" points="
  461.527,250.437 337.34,250.437 337.34,246.277 461.527,246.277 461.527,250.437 
  "/>
<polygon clip-path="url(#clip8903)" points="
488.524,246.277 337.34,246.277 337.34,242.118 488.524,242.118 488.524,246.277 488.524,246.277 
  " fill="#009af9" fill-opacity="1"/>
<polyline clip-path="url(#clip8903)" style="stroke:#000000; stroke-width:1; stroke-opacity:1; fill:none" points="
  488.524,246.277 337.34,246.277 337.34,242.118 488.524,242.118 488.524,246.277 
  "/>
<polygon clip-path="url(#clip8903)" points="
526.321,242.118 337.34,242.118 337.34,237.959 526.321,237.959 526.321,242.118 526.321,242.118 
  " fill="#009af9" fill-opacity="1"/>
<polyline clip-path="url(#clip8903)" style="stroke:#000000; stroke-width:1; stroke-opacity:1; fill:none" points="
  526.321,242.118 337.34,242.118 337.34,237.959 526.321,237.959 526.321,242.118 
  "/>
<polygon clip-path="url(#clip8903)" points="
493.924,237.959 337.34,237.959 337.34,233.799 493.924,233.799 493.924,237.959 493.924,237.959 
  " fill="#009af9" fill-opacity="1"/>
<polyline clip-path="url(#clip8903)" style="stroke:#000000; stroke-width:1; stroke-opacity:1; fill:none" points="
  493.924,237.959 337.34,237.959 337.34,233.799 493.924,233.799 493.924,237.959 
  "/>
<polygon clip-path="url(#clip8903)" points="
510.122,233.799 337.34,233.799 337.34,229.64 510.122,229.64 510.122,233.799 510.122,233.799 
  " fill="#009af9" fill-opacity="1"/>
<polyline clip-path="url(#clip8903)" style="stroke:#000000; stroke-width:1; stroke-opacity:1; fill:none" points="
  510.122,233.799 337.34,233.799 337.34,229.64 510.122,229.64 510.122,233.799 
  "/>
<polygon clip-path="url(#clip8903)" points="
504.723,229.64 337.34,229.64 337.34,225.48 504.723,225.48 504.723,229.64 504.723,229.64 
  " fill="#009af9" fill-opacity="1"/>
<polyline clip-path="url(#clip8903)" style="stroke:#000000; stroke-width:1; stroke-opacity:1; fill:none" points="
  504.723,229.64 337.34,229.64 337.34,225.48 504.723,225.48 504.723,229.64 
  "/>
<polygon clip-path="url(#clip8903)" points="
493.924,225.48 337.34,225.48 337.34,221.321 493.924,221.321 493.924,225.48 493.924,225.48 
  " fill="#009af9" fill-opacity="1"/>
<polyline clip-path="url(#clip8903)" style="stroke:#000000; stroke-width:1; stroke-opacity:1; fill:none" points="
  493.924,225.48 337.34,225.48 337.34,221.321 493.924,221.321 493.924,225.48 
  "/>
<polygon clip-path="url(#clip8903)" points="
526.321,221.321 337.34,221.321 337.34,217.161 526.321,217.161 526.321,221.321 526.321,221.321 
  " fill="#009af9" fill-opacity="1"/>
<polyline clip-path="url(#clip8903)" style="stroke:#000000; stroke-width:1; stroke-opacity:1; fill:none" points="
  526.321,221.321 337.34,221.321 337.34,217.161 526.321,217.161 526.321,221.321 
  "/>
<polygon clip-path="url(#clip8903)" points="
537.119,217.161 337.34,217.161 337.34,213.002 537.119,213.002 537.119,217.161 537.119,217.161 
  " fill="#009af9" fill-opacity="1"/>
<polyline clip-path="url(#clip8903)" style="stroke:#000000; stroke-width:1; stroke-opacity:1; fill:none" points="
  537.119,217.161 337.34,217.161 337.34,213.002 537.119,213.002 537.119,217.161 
  "/>
<polygon clip-path="url(#clip8903)" points="
564.117,213.002 337.34,213.002 337.34,208.843 564.117,208.843 564.117,213.002 564.117,213.002 
  " fill="#009af9" fill-opacity="1"/>
<polyline clip-path="url(#clip8903)" style="stroke:#000000; stroke-width:1; stroke-opacity:1; fill:none" points="
  564.117,213.002 337.34,213.002 337.34,208.843 564.117,208.843 564.117,213.002 
  "/>
<polygon clip-path="url(#clip8903)" points="
564.117,208.843 337.34,208.843 337.34,204.683 564.117,204.683 564.117,208.843 564.117,208.843 
  " fill="#009af9" fill-opacity="1"/>
<polyline clip-path="url(#clip8903)" style="stroke:#000000; stroke-width:1; stroke-opacity:1; fill:none" points="
  564.117,208.843 337.34,208.843 337.34,204.683 564.117,204.683 564.117,208.843 
  "/>
<polygon clip-path="url(#clip8903)" points="
580.315,204.683 337.34,204.683 337.34,200.524 580.315,200.524 580.315,204.683 580.315,204.683 
  " fill="#009af9" fill-opacity="1"/>
<polyline clip-path="url(#clip8903)" style="stroke:#000000; stroke-width:1; stroke-opacity:1; fill:none" points="
  580.315,204.683 337.34,204.683 337.34,200.524 580.315,200.524 580.315,204.683 
  "/>
<polygon clip-path="url(#clip8903)" points="
537.119,200.524 337.34,200.524 337.34,196.364 537.119,196.364 537.119,200.524 537.119,200.524 
  " fill="#009af9" fill-opacity="1"/>
<polyline clip-path="url(#clip8903)" style="stroke:#000000; stroke-width:1; stroke-opacity:1; fill:none" points="
  537.119,200.524 337.34,200.524 337.34,196.364 537.119,196.364 537.119,200.524 
  "/>
<polygon clip-path="url(#clip8903)" points="
569.516,196.364 337.34,196.364 337.34,192.205 569.516,192.205 569.516,196.364 569.516,196.364 
  " fill="#009af9" fill-opacity="1"/>
<polyline clip-path="url(#clip8903)" style="stroke:#000000; stroke-width:1; stroke-opacity:1; fill:none" points="
  569.516,196.364 337.34,196.364 337.34,192.205 569.516,192.205 569.516,196.364 
  "/>
<polygon clip-path="url(#clip8903)" points="
564.117,192.205 337.34,192.205 337.34,188.046 564.117,188.046 564.117,192.205 564.117,192.205 
  " fill="#009af9" fill-opacity="1"/>
<polyline clip-path="url(#clip8903)" style="stroke:#000000; stroke-width:1; stroke-opacity:1; fill:none" points="
  564.117,192.205 337.34,192.205 337.34,188.046 564.117,188.046 564.117,192.205 
  "/>
<polygon clip-path="url(#clip8903)" points="
564.117,188.046 337.34,188.046 337.34,183.886 564.117,183.886 564.117,188.046 564.117,188.046 
  " fill="#009af9" fill-opacity="1"/>
<polyline clip-path="url(#clip8903)" style="stroke:#000000; stroke-width:1; stroke-opacity:1; fill:none" points="
  564.117,188.046 337.34,188.046 337.34,183.886 564.117,183.886 564.117,188.046 
  "/>
<polygon clip-path="url(#clip8903)" points="
510.122,183.886 337.34,183.886 337.34,179.727 510.122,179.727 510.122,183.886 510.122,183.886 
  " fill="#009af9" fill-opacity="1"/>
<polyline clip-path="url(#clip8903)" style="stroke:#000000; stroke-width:1; stroke-opacity:1; fill:none" points="
  510.122,183.886 337.34,183.886 337.34,179.727 510.122,179.727 510.122,183.886 
  "/>
<polygon clip-path="url(#clip8903)" points="
488.524,179.727 337.34,179.727 337.34,175.567 488.524,175.567 488.524,179.727 488.524,179.727 
  " fill="#009af9" fill-opacity="1"/>
<polyline clip-path="url(#clip8903)" style="stroke:#000000; stroke-width:1; stroke-opacity:1; fill:none" points="
  488.524,179.727 337.34,179.727 337.34,175.567 488.524,175.567 488.524,179.727 
  "/>
<polygon clip-path="url(#clip8903)" points="
493.924,175.567 337.34,175.567 337.34,171.408 493.924,171.408 493.924,175.567 493.924,175.567 
  " fill="#009af9" fill-opacity="1"/>
<polyline clip-path="url(#clip8903)" style="stroke:#000000; stroke-width:1; stroke-opacity:1; fill:none" points="
  493.924,175.567 337.34,175.567 337.34,171.408 493.924,171.408 493.924,175.567 
  "/>
<polygon clip-path="url(#clip8903)" points="
493.924,171.408 337.34,171.408 337.34,167.248 493.924,167.248 493.924,171.408 493.924,171.408 
  " fill="#009af9" fill-opacity="1"/>
<polyline clip-path="url(#clip8903)" style="stroke:#000000; stroke-width:1; stroke-opacity:1; fill:none" points="
  493.924,171.408 337.34,171.408 337.34,167.248 493.924,167.248 493.924,171.408 
  "/>
<polygon clip-path="url(#clip8903)" points="
493.924,167.248 337.34,167.248 337.34,163.089 493.924,163.089 493.924,167.248 493.924,167.248 
  " fill="#009af9" fill-opacity="1"/>
<polyline clip-path="url(#clip8903)" style="stroke:#000000; stroke-width:1; stroke-opacity:1; fill:none" points="
  493.924,167.248 337.34,167.248 337.34,163.089 493.924,163.089 493.924,167.248 
  "/>
<polygon clip-path="url(#clip8903)" points="
461.527,163.089 337.34,163.089 337.34,158.93 461.527,158.93 461.527,163.089 461.527,163.089 
  " fill="#009af9" fill-opacity="1"/>
<polyline clip-path="url(#clip8903)" style="stroke:#000000; stroke-width:1; stroke-opacity:1; fill:none" points="
  461.527,163.089 337.34,163.089 337.34,158.93 461.527,158.93 461.527,163.089 
  "/>
<polygon clip-path="url(#clip8903)" points="
461.527,158.93 337.34,158.93 337.34,154.77 461.527,154.77 461.527,158.93 461.527,158.93 
  " fill="#009af9" fill-opacity="1"/>
<polyline clip-path="url(#clip8903)" style="stroke:#000000; stroke-width:1; stroke-opacity:1; fill:none" points="
  461.527,158.93 337.34,158.93 337.34,154.77 461.527,154.77 461.527,158.93 
  "/>
<polygon clip-path="url(#clip8903)" points="
402.133,154.77 337.34,154.77 337.34,150.611 402.133,150.611 402.133,154.77 402.133,154.77 
  " fill="#009af9" fill-opacity="1"/>
<polyline clip-path="url(#clip8903)" style="stroke:#000000; stroke-width:1; stroke-opacity:1; fill:none" points="
  402.133,154.77 337.34,154.77 337.34,150.611 402.133,150.611 402.133,154.77 
  "/>
<polygon clip-path="url(#clip8903)" points="
466.927,150.611 337.34,150.611 337.34,146.451 466.927,146.451 466.927,150.611 466.927,150.611 
  " fill="#009af9" fill-opacity="1"/>
<polyline clip-path="url(#clip8903)" style="stroke:#000000; stroke-width:1; stroke-opacity:1; fill:none" points="
  466.927,150.611 337.34,150.611 337.34,146.451 466.927,146.451 466.927,150.611 
  "/>
<polygon clip-path="url(#clip8903)" points="
434.53,146.451 337.34,146.451 337.34,142.292 434.53,142.292 434.53,146.451 434.53,146.451 
  " fill="#009af9" fill-opacity="1"/>
<polyline clip-path="url(#clip8903)" style="stroke:#000000; stroke-width:1; stroke-opacity:1; fill:none" points="
  434.53,146.451 337.34,146.451 337.34,142.292 434.53,142.292 434.53,146.451 
  "/>
<polygon clip-path="url(#clip8903)" points="
402.133,142.292 337.34,142.292 337.34,138.133 402.133,138.133 402.133,142.292 402.133,142.292 
  " fill="#009af9" fill-opacity="1"/>
<polyline clip-path="url(#clip8903)" style="stroke:#000000; stroke-width:1; stroke-opacity:1; fill:none" points="
  402.133,142.292 337.34,142.292 337.34,138.133 402.133,138.133 402.133,142.292 
  "/>
<polygon clip-path="url(#clip8903)" points="
402.133,138.133 337.34,138.133 337.34,133.973 402.133,133.973 402.133,138.133 402.133,138.133 
  " fill="#009af9" fill-opacity="1"/>
<polyline clip-path="url(#clip8903)" style="stroke:#000000; stroke-width:1; stroke-opacity:1; fill:none" points="
  402.133,138.133 337.34,138.133 337.34,133.973 402.133,133.973 402.133,138.133 
  "/>
<polygon clip-path="url(#clip8903)" points="
396.734,133.973 337.34,133.973 337.34,129.814 396.734,129.814 396.734,133.973 396.734,133.973 
  " fill="#009af9" fill-opacity="1"/>
<polyline clip-path="url(#clip8903)" style="stroke:#000000; stroke-width:1; stroke-opacity:1; fill:none" points="
  396.734,133.973 337.34,133.973 337.34,129.814 396.734,129.814 396.734,133.973 
  "/>
<polygon clip-path="url(#clip8903)" points="
385.935,129.814 337.34,129.814 337.34,125.654 385.935,125.654 385.935,129.814 385.935,129.814 
  " fill="#009af9" fill-opacity="1"/>
<polyline clip-path="url(#clip8903)" style="stroke:#000000; stroke-width:1; stroke-opacity:1; fill:none" points="
  385.935,129.814 337.34,129.814 337.34,125.654 385.935,125.654 385.935,129.814 
  "/>
<polygon clip-path="url(#clip8903)" points="
380.536,125.654 337.34,125.654 337.34,121.495 380.536,121.495 380.536,125.654 380.536,125.654 
  " fill="#009af9" fill-opacity="1"/>
<polyline clip-path="url(#clip8903)" style="stroke:#000000; stroke-width:1; stroke-opacity:1; fill:none" points="
  380.536,125.654 337.34,125.654 337.34,121.495 380.536,121.495 380.536,125.654 
  "/>
<polygon clip-path="url(#clip8903)" points="
364.337,121.495 337.34,121.495 337.34,117.335 364.337,117.335 364.337,121.495 364.337,121.495 
  " fill="#009af9" fill-opacity="1"/>
<polyline clip-path="url(#clip8903)" style="stroke:#000000; stroke-width:1; stroke-opacity:1; fill:none" points="
  364.337,121.495 337.34,121.495 337.34,117.335 364.337,117.335 364.337,121.495 
  "/>
<polygon clip-path="url(#clip8903)" points="
364.337,117.335 337.34,117.335 337.34,113.176 364.337,113.176 364.337,117.335 364.337,117.335 
  " fill="#009af9" fill-opacity="1"/>
<polyline clip-path="url(#clip8903)" style="stroke:#000000; stroke-width:1; stroke-opacity:1; fill:none" points="
  364.337,117.335 337.34,117.335 337.34,113.176 364.337,113.176 364.337,117.335 
  "/>
<polygon clip-path="url(#clip8903)" points="
369.737,113.176 337.34,113.176 337.34,109.017 369.737,109.017 369.737,113.176 369.737,113.176 
  " fill="#009af9" fill-opacity="1"/>
<polyline clip-path="url(#clip8903)" style="stroke:#000000; stroke-width:1; stroke-opacity:1; fill:none" points="
  369.737,113.176 337.34,113.176 337.34,109.017 369.737,109.017 369.737,113.176 
  "/>
<polygon clip-path="url(#clip8903)" points="
348.139,109.017 337.34,109.017 337.34,104.857 348.139,104.857 348.139,109.017 348.139,109.017 
  " fill="#009af9" fill-opacity="1"/>
<polyline clip-path="url(#clip8903)" style="stroke:#000000; stroke-width:1; stroke-opacity:1; fill:none" points="
  348.139,109.017 337.34,109.017 337.34,104.857 348.139,104.857 348.139,109.017 
  "/>
<polygon clip-path="url(#clip8903)" points="
358.938,104.857 337.34,104.857 337.34,100.698 358.938,100.698 358.938,104.857 358.938,104.857 
  " fill="#009af9" fill-opacity="1"/>
<polyline clip-path="url(#clip8903)" style="stroke:#000000; stroke-width:1; stroke-opacity:1; fill:none" points="
  358.938,104.857 337.34,104.857 337.34,100.698 358.938,100.698 358.938,104.857 
  "/>
<polygon clip-path="url(#clip8903)" points="
353.538,100.698 337.34,100.698 337.34,96.5384 353.538,96.5384 353.538,100.698 353.538,100.698 
  " fill="#009af9" fill-opacity="1"/>
<polyline clip-path="url(#clip8903)" style="stroke:#000000; stroke-width:1; stroke-opacity:1; fill:none" points="
  353.538,100.698 337.34,100.698 337.34,96.5384 353.538,96.5384 353.538,100.698 
  "/>
<polygon clip-path="url(#clip8903)" points="
348.139,96.5384 337.34,96.5384 337.34,92.3789 348.139,92.3789 348.139,96.5384 348.139,96.5384 
  " fill="#009af9" fill-opacity="1"/>
<polyline clip-path="url(#clip8903)" style="stroke:#000000; stroke-width:1; stroke-opacity:1; fill:none" points="
  348.139,96.5384 337.34,96.5384 337.34,92.3789 348.139,92.3789 348.139,96.5384 
  "/>
<polygon clip-path="url(#clip8903)" points="
348.139,92.3789 337.34,92.3789 337.34,88.2195 348.139,88.2195 348.139,92.3789 348.139,92.3789 
  " fill="#009af9" fill-opacity="1"/>
<polyline clip-path="url(#clip8903)" style="stroke:#000000; stroke-width:1; stroke-opacity:1; fill:none" points="
  348.139,92.3789 337.34,92.3789 337.34,88.2195 348.139,88.2195 348.139,92.3789 
  "/>
<polygon clip-path="url(#clip8903)" points="
337.34,88.2195 337.34,88.2195 337.34,84.0601 337.34,84.0601 337.34,88.2195 337.34,88.2195 
  " fill="#009af9" fill-opacity="1"/>
<polyline clip-path="url(#clip8903)" style="stroke:#000000; stroke-width:1; stroke-opacity:1; fill:none" points="
  337.34,88.2195 337.34,88.2195 337.34,84.0601 337.34,88.2195 
  "/>
<polygon clip-path="url(#clip8903)" points="
337.34,84.0601 337.34,84.0601 337.34,79.9007 337.34,79.9007 337.34,84.0601 337.34,84.0601 
  " fill="#009af9" fill-opacity="1"/>
<polyline clip-path="url(#clip8903)" style="stroke:#000000; stroke-width:1; stroke-opacity:1; fill:none" points="
  337.34,84.0601 337.34,84.0601 337.34,79.9007 337.34,84.0601 
  "/>
<polygon clip-path="url(#clip8903)" points="
342.74,79.9007 337.34,79.9007 337.34,75.7413 342.74,75.7413 342.74,79.9007 342.74,79.9007 
  " fill="#009af9" fill-opacity="1"/>
<polyline clip-path="url(#clip8903)" style="stroke:#000000; stroke-width:1; stroke-opacity:1; fill:none" points="
  342.74,79.9007 337.34,79.9007 337.34,75.7413 342.74,75.7413 342.74,79.9007 
  "/>
<polygon clip-path="url(#clip8903)" points="
337.34,75.7413 337.34,75.7413 337.34,71.5819 337.34,71.5819 337.34,75.7413 337.34,75.7413 
  " fill="#009af9" fill-opacity="1"/>
<polyline clip-path="url(#clip8903)" style="stroke:#000000; stroke-width:1; stroke-opacity:1; fill:none" points="
  337.34,75.7413 337.34,75.7413 337.34,71.5819 337.34,75.7413 
  "/>
<polygon clip-path="url(#clip8903)" points="
337.34,71.5819 337.34,71.5819 337.34,67.4224 337.34,67.4224 337.34,71.5819 337.34,71.5819 
  " fill="#009af9" fill-opacity="1"/>
<polyline clip-path="url(#clip8903)" style="stroke:#000000; stroke-width:1; stroke-opacity:1; fill:none" points="
  337.34,71.5819 337.34,71.5819 337.34,67.4224 337.34,71.5819 
  "/>
<polygon clip-path="url(#clip8903)" points="
337.34,67.4224 337.34,67.4224 337.34,63.263 337.34,63.263 337.34,67.4224 337.34,67.4224 
  " fill="#009af9" fill-opacity="1"/>
<polyline clip-path="url(#clip8903)" style="stroke:#000000; stroke-width:1; stroke-opacity:1; fill:none" points="
  337.34,67.4224 337.34,67.4224 337.34,63.263 337.34,67.4224 
  "/>
<polygon clip-path="url(#clip8903)" points="
337.34,63.263 337.34,63.263 337.34,59.1036 337.34,59.1036 337.34,63.263 337.34,63.263 
  " fill="#009af9" fill-opacity="1"/>
<polyline clip-path="url(#clip8903)" style="stroke:#000000; stroke-width:1; stroke-opacity:1; fill:none" points="
  337.34,63.263 337.34,63.263 337.34,59.1036 337.34,63.263 
  "/>
<polygon clip-path="url(#clip8903)" points="
337.34,59.1036 337.34,59.1036 337.34,54.9442 337.34,54.9442 337.34,59.1036 337.34,59.1036 
  " fill="#009af9" fill-opacity="1"/>
<polyline clip-path="url(#clip8903)" style="stroke:#000000; stroke-width:1; stroke-opacity:1; fill:none" points="
  337.34,59.1036 337.34,59.1036 337.34,54.9442 337.34,59.1036 
  "/>
<polygon clip-path="url(#clip8903)" points="
337.34,54.9442 337.34,54.9442 337.34,50.7848 337.34,50.7848 337.34,54.9442 337.34,54.9442 
  " fill="#009af9" fill-opacity="1"/>
<polyline clip-path="url(#clip8903)" style="stroke:#000000; stroke-width:1; stroke-opacity:1; fill:none" points="
  337.34,54.9442 337.34,54.9442 337.34,50.7848 337.34,54.9442 
  "/>
<polygon clip-path="url(#clip8903)" points="
337.34,50.7848 337.34,50.7848 337.34,46.6253 337.34,46.6253 337.34,50.7848 337.34,50.7848 
  " fill="#009af9" fill-opacity="1"/>
<polyline clip-path="url(#clip8903)" style="stroke:#000000; stroke-width:1; stroke-opacity:1; fill:none" points="
  337.34,50.7848 337.34,50.7848 337.34,46.6253 337.34,50.7848 
  "/>
<polygon clip-path="url(#clip8903)" points="
337.34,46.6253 337.34,46.6253 337.34,42.4659 337.34,42.4659 337.34,46.6253 337.34,46.6253 
  " fill="#009af9" fill-opacity="1"/>
<polyline clip-path="url(#clip8903)" style="stroke:#000000; stroke-width:1; stroke-opacity:1; fill:none" points="
  337.34,46.6253 337.34,46.6253 337.34,42.4659 337.34,46.6253 
  "/>
<polygon clip-path="url(#clip8903)" points="
337.34,42.4659 337.34,42.4659 337.34,38.3065 337.34,38.3065 337.34,42.4659 337.34,42.4659 
  " fill="#009af9" fill-opacity="1"/>
<polyline clip-path="url(#clip8903)" style="stroke:#000000; stroke-width:1; stroke-opacity:1; fill:none" points="
  337.34,42.4659 337.34,42.4659 337.34,38.3065 337.34,42.4659 
  "/>
<polygon clip-path="url(#clip8903)" points="
337.34,38.3065 337.34,38.3065 337.34,34.1471 337.34,34.1471 337.34,38.3065 337.34,38.3065 
  " fill="#009af9" fill-opacity="1"/>
<polyline clip-path="url(#clip8903)" style="stroke:#000000; stroke-width:1; stroke-opacity:1; fill:none" points="
  337.34,38.3065 337.34,38.3065 337.34,34.1471 337.34,38.3065 
  "/>
<polygon clip-path="url(#clip8903)" points="
337.34,34.1471 337.34,34.1471 337.34,29.9877 337.34,29.9877 337.34,34.1471 337.34,34.1471 
  " fill="#009af9" fill-opacity="1"/>
<polyline clip-path="url(#clip8903)" style="stroke:#000000; stroke-width:1; stroke-opacity:1; fill:none" points="
  337.34,34.1471 337.34,34.1471 337.34,29.9877 337.34,34.1471 
  "/>
<polygon clip-path="url(#clip8903)" points="
337.34,29.9877 337.34,29.9877 337.34,25.8283 337.34,25.8283 337.34,29.9877 337.34,29.9877 
  " fill="#009af9" fill-opacity="1"/>
<polyline clip-path="url(#clip8903)" style="stroke:#000000; stroke-width:1; stroke-opacity:1; fill:none" points="
  337.34,29.9877 337.34,29.9877 337.34,25.8283 337.34,29.9877 
  "/>
<polygon clip-path="url(#clip8903)" points="
342.74,25.8283 337.34,25.8283 337.34,21.6688 342.74,21.6688 342.74,25.8283 342.74,25.8283 
  " fill="#009af9" fill-opacity="1"/>
<polyline clip-path="url(#clip8903)" style="stroke:#000000; stroke-width:1; stroke-opacity:1; fill:none" points="
  342.74,25.8283 337.34,25.8283 337.34,21.6688 342.74,21.6688 342.74,25.8283 
  "/>
</svg>
